<?xml version="1.0" encoding="UTF-8" standalone="no"?><!DOCTYPE svg PUBLIC "-//W3C//DTD SVG 1.1//EN" "http://www.w3.org/Graphics/SVG/1.1/DTD/svg11.dtd"><svg width="100%" height="100%" viewBox="0 0 200 200" version="1.1" xmlns="http://www.w3.org/2000/svg" xmlns:xlink="http://www.w3.org/1999/xlink" xml:space="preserve" xmlns:serif="http://www.serif.com/" style="fill-rule:evenodd;clip-rule:evenodd;stroke-linejoin:round;stroke-miterlimit:2;"><g><path d="M90.329,2.501c6.016,-3.334 13.326,-3.334 19.342,-0l72.844,40.372c6.343,3.516 10.279,10.197 10.279,17.45l0,79.354c-0,7.253 -3.936,13.934 -10.279,17.45l-72.844,40.372c-6.016,3.334 -13.326,3.334 -19.342,0l-72.844,-40.372c-6.343,-3.516 -10.279,-10.197 -10.279,-17.45l0,-79.354c0,-7.253 3.936,-13.934 10.279,-17.45l72.844,-40.372Zm-16.042,24.858l-50.032,27.729c-1.903,1.055 -3.084,3.059 -3.084,5.235l0,79.354c0,2.176 1.181,4.18 3.084,5.235l72.844,40.372c1.805,1 3.998,1 5.803,-0l9.142,-5.067l-21.842,-12.611c-0.928,-0.536 -1.668,-1.273 -2.196,-2.124c-0.318,-0.512 -0.568,-1.079 -0.732,-1.691c-0.164,-0.612 -0.232,-1.228 -0.212,-1.831c0.032,-1.001 0.304,-2.009 0.84,-2.937l15.708,-27.207c1.734,-3.003 5.58,-4.034 8.583,-2.3c3.003,1.734 4.034,5.58 2.3,8.583l-8.123,14.07l4.702,-1.26c11.225,-3.226 21.073,-9.928 28.179,-19.044l1.93,-0c1.782,0 3.404,-0.682 4.62,-1.8c1.216,1.118 2.838,1.8 4.62,1.8l3.243,0c0.239,0 0.476,-0.003 0.71,-0.009l-0.119,0.206c-8.769,15.057 -23.032,26.152 -39.784,30.945l-0.102,0.028l-4.745,1.272l14.07,8.123c0.379,0.219 0.727,0.472 1.042,0.753l51.012,-28.273c1.903,-1.055 3.084,-3.059 3.084,-5.235l-0,-79.354c-0,-2.176 -1.181,-4.18 -3.084,-5.235l-72.844,-40.372c-1.805,-1 -3.998,-1 -5.803,0l-10.404,5.766l22.806,13.167c0.928,0.536 1.668,1.273 2.196,2.124c0.318,0.512 0.568,1.079 0.732,1.692c0.164,0.612 0.232,1.228 0.212,1.831c-0.032,1.001 -0.304,2.009 -0.84,2.937l-15.708,27.207c-1.734,3.003 -5.58,4.034 -8.583,2.3c-3.003,-1.734 -4.034,-5.58 -2.3,-8.583l8.123,-14.07l-4.702,1.26c-12.885,3.703 -23.956,11.987 -31.147,23.243c-1.487,-3.344 -4.84,-5.678 -8.733,-5.678l-2.537,-0c8.821,-14.404 22.746,-25.007 39.018,-29.663l0.102,-0.028l4.745,-1.272l-14.07,-8.123c-0.679,-0.392 -1.256,-0.891 -1.725,-1.465Zm66.787,44.597c-4.083,-5.925 -9.492,-11.048 -16.091,-14.858c-3.003,-1.734 -4.034,-5.58 -2.3,-8.583c1.734,-3.003 5.58,-4.034 8.583,-2.3c10.836,6.256 19.107,15.348 24.422,25.819c-0.653,-0.052 -1.328,-0.078 -2.027,-0.078l-3.243,0c-1.782,0 -3.404,0.682 -4.62,1.8c-1.216,-1.118 -2.838,-1.8 -4.62,-1.8l-0.105,0Zm-81.765,58.31c3.996,5.516 9.171,10.292 15.409,13.893c3.003,1.734 4.034,5.58 2.3,8.583c-1.734,3.003 -5.58,4.034 -8.583,2.3c-10.434,-6.024 -18.489,-14.676 -23.818,-24.658c0.812,0.962 1.828,1.779 3.025,2.377c4.069,2.035 8.903,0.888 11.667,-2.494Z" style="fill:url(#_Linear1);"/><path d="M110.079,95.692c0.567,1.323 0.88,2.779 0.88,4.308c0,6.049 -4.911,10.959 -10.959,10.959c-6.049,0 -10.959,-4.911 -10.959,-10.959c0,-6.049 4.911,-10.959 10.959,-10.959c4.462,0 8.305,2.672 10.014,6.503c0.024,0.048 0.046,0.098 0.065,0.149Z" style="fill:#b30a00;"/><path d="M54.559,88.36l-22.154,0c-1.504,0 -2.724,-1.221 -2.724,-2.724c-0,-1.504 1.221,-2.724 2.724,-2.724l32.693,0c1.504,0 2.724,1.221 2.724,2.724c-0,1.504 -1.221,2.724 -2.724,2.724l-3.991,0l-4.64,6.96c-0.1,0.149 -0.214,0.288 -0.34,0.415l-4.885,4.885l7.609,7.609c1.063,1.063 1.063,2.79 0,3.853c-1.063,1.063 -2.79,1.063 -3.853,0l-7.609,-7.609l-7.609,7.609c-1.063,1.063 -2.79,1.063 -3.853,0c-1.063,-1.063 -1.063,-2.79 -0,-3.853l7.609,-7.609l-4.885,-4.885c-1.063,-1.063 -1.063,-2.79 0,-3.853c1.063,-1.063 2.79,-1.063 3.853,0l4.885,4.885l4.694,-4.694l2.475,-3.713Zm-8.531,-8.173c-1.504,-0 -2.724,-1.221 -2.724,-2.724c0,-1.504 1.221,-2.724 2.724,-2.724l2.724,0c1.504,-0 2.724,1.221 2.724,2.724c0,1.504 -1.221,2.724 -2.724,2.724l-2.724,0Z" style="fill:#53565a;"/><path d="M59.047,116.042l-4.696,9.392c-0.672,1.345 -2.31,1.891 -3.655,1.218c-1.345,-0.672 -1.891,-2.31 -1.218,-3.655l13.622,-27.244c0.461,-0.923 1.405,-1.506 2.437,-1.506c1.032,0 1.975,0.583 2.437,1.506l13.622,27.244c0.672,1.345 0.127,2.983 -1.218,3.655c-1.345,0.672 -2.983,0.127 -3.655,-1.218l-4.696,-9.392l-12.979,0Zm10.255,-5.449l-3.765,-7.53l-3.765,7.53l7.53,0Z" style="fill:#53565a;"/><path d="M133.237,101.906c0.298,0.087 0.577,0.184 0.836,0.29c0.983,0.403 1.705,1.058 2.166,1.966c0.461,0.908 0.691,2.176 0.691,3.803l0,6.366c0,1.128 0.299,1.999 0.897,2.612c0.598,0.614 1.484,0.92 2.658,0.92l0.689,0c0.001,-0.001 0.002,-0.001 0.003,-0.001c0.001,0.012 0.001,2.038 0.001,3.934c0,0.86 -0.342,1.684 -0.949,2.292c-0.608,0.608 -1.432,0.949 -2.292,0.949c-0.001,-0 -0.001,-0 -0.001,-0c-3.443,0 -6.037,-0.841 -7.78,-2.522c-1.743,-1.681 -2.615,-4.058 -2.615,-7.13l0,-7.622c0,-0.789 -0.198,-1.361 -0.593,-1.717c-0.395,-0.356 -0.916,-0.534 -1.563,-0.534l-0,0c-0.437,-0 -0.855,-0.173 -1.164,-0.482c-0.309,-0.309 -0.482,-0.727 -0.482,-1.164c-0,-1.172 -0,-2.741 -0,-3.912c-0,-0.437 0.173,-0.855 0.482,-1.164c0.309,-0.309 0.727,-0.482 1.164,-0.482c0,0 0,0 0,0c0.647,0 1.167,-0.186 1.563,-0.559c0.395,-0.373 0.593,-0.937 0.593,-1.693l0,-7.622c0,-3.082 0.872,-5.461 2.615,-7.137c1.743,-1.676 4.337,-2.515 7.78,-2.515l0.001,0c0.86,0 1.684,0.342 2.292,0.949c0.608,0.608 0.949,1.432 0.949,2.292c0,1.896 0,3.922 0,3.932c-0,0.002 -0.002,0.004 -0.004,0.004c-0.002,0 -0.004,-0.001 -0.005,-0.003c-0.055,-0.001 -0.685,-0.001 -0.685,-0.001c-1.174,0 -2.06,0.307 -2.658,0.92c-0.598,0.614 -0.897,1.484 -0.897,2.612l0,6.366c0,1.628 -0.23,2.895 -0.691,3.803c-0.461,0.908 -1.183,1.561 -2.166,1.958c-0.259,0.105 -0.538,0.201 -0.836,0.288Zm25.146,-0c-0.295,-0.087 -0.571,-0.183 -0.828,-0.288c-0.972,-0.398 -1.694,-1.05 -2.166,-1.958c-0.472,-0.908 -0.708,-2.176 -0.708,-3.803l0,-6.366c0,-1.128 -0.299,-1.999 -0.897,-2.612c-0.598,-0.614 -1.489,-0.92 -2.673,-0.92l-0.002,0c-0.382,-0 -0.692,-0.31 -0.692,-0.692c0,-0.757 0,-2.026 0,-3.241c-0,-0.86 0.342,-1.684 0.949,-2.292c0.608,-0.608 1.432,-0.949 2.292,-0.949c0.001,0 0.001,0 0.001,0c3.454,0 6.052,0.838 7.795,2.515c1.743,1.676 2.615,4.055 2.615,7.137l0,7.622c0,0.756 0.198,1.32 0.593,1.693c0.395,0.373 0.911,0.559 1.547,0.559l1.641,0c0.001,-0.001 0.002,-0.001 0.003,-0.001c0.001,0.021 0.001,7.185 0.001,7.205c-0,0.002 -0.001,0.004 -0.003,0.004c-0.002,0 -0.004,-0 -0.005,-0.002c-0.089,-0.002 -1.638,-0.002 -1.638,-0.002c-0.636,0 -1.152,0.178 -1.547,0.534c-0.395,0.356 -0.593,0.929 -0.593,1.717l0,7.622c0,3.072 -0.872,5.449 -2.615,7.13c-1.743,1.681 -4.342,2.522 -7.795,2.522l-0.001,0c-0.86,-0 -1.684,-0.342 -2.292,-0.949c-0.608,-0.608 -0.949,-1.432 -0.949,-2.292c-0,-1.215 -0,-2.484 -0,-3.241c-0,-0.382 0.31,-0.692 0.692,-0.692c0.001,-0 0.002,-0 0.002,-0c1.184,0 2.075,-0.307 2.673,-0.92c0.598,-0.614 0.897,-1.484 0.897,-2.612l0,-6.366c0,-1.628 0.236,-2.895 0.708,-3.803c0.472,-0.908 1.194,-1.563 2.166,-1.966c0.256,-0.106 0.532,-0.203 0.828,-0.29Z" style="fill:#53565a;"/></g><defs><linearGradient id="_Linear1" x1="0" y1="0" x2="1" y2="0" gradientUnits="userSpaceOnUse" gradientTransform="matrix(-94.049359,136.309434,-136.309434,-94.049359,143.239085,29.944264)"><stop offset="0" style="stop-color:#ff2d20;stop-opacity:1"/><stop offset="1" style="stop-color:#b30a00;stop-opacity:1"/></linearGradient></defs></svg>