<svg width="100%" height="100%" viewBox="0 0 1024 1024" version="1.1" xmlns="http://www.w3.org/2000/svg"
     xmlns:xlink="http://www.w3.org/1999/xlink" xml:space="preserve" xmlns:serif="http://www.serif.com/"
     style="fill-rule:evenodd;clip-rule:evenodd;stroke-linejoin:round;stroke-miterlimit:2;">
    <g id="LINGUA-DARK" serif:id="LINGUA DARK" transform="matrix(1.900422,0,0,1.900422,-842.759503,-44.74038)">
        <g transform="matrix(1,0,0,1,224.900739,-66.038331)">
            <path d="M461.917,96.318C478.126,87.335 497.819,87.335 514.027,96.318L710.278,205.087C727.368,214.559 737.972,232.559 737.972,252.099L737.972,465.89C737.972,485.43 727.368,503.43 710.278,512.902L514.027,621.671C497.819,630.654 478.126,630.654 461.917,621.671L265.666,512.902C248.576,503.43 237.972,485.43 237.972,465.89L237.972,252.099C237.972,232.559 248.576,214.559 265.666,205.087L461.917,96.318ZM418.697,163.289L283.905,237.995C278.778,240.837 275.596,246.237 275.596,252.099L275.596,465.89C275.596,471.752 278.778,477.152 283.905,479.994L480.156,588.763C485.018,591.458 490.926,591.458 495.789,588.763L520.417,575.113L461.571,541.138C459.071,539.694 457.078,537.709 455.656,535.416C454.798,534.036 454.126,532.509 453.684,530.859C453.242,529.209 453.06,527.551 453.113,525.927C453.199,523.23 453.932,520.514 455.375,518.014L497.694,444.716C502.365,436.625 512.727,433.849 520.818,438.52C528.908,443.191 531.685,453.553 527.013,461.643L505.128,499.55L517.796,496.155C548.037,487.465 574.571,469.407 593.714,444.848L598.914,444.848C603.714,444.848 608.084,443.009 611.36,439.998C614.635,443.009 619.006,444.848 623.806,444.848L632.543,444.848C633.188,444.848 633.825,444.839 634.455,444.823L634.167,445.324L634.135,445.379C610.511,485.944 572.082,515.835 526.951,528.75L526.675,528.826L513.89,532.252L551.797,554.137C552.819,554.727 553.757,555.409 554.605,556.165L692.04,479.994C697.167,477.152 700.348,471.752 700.348,465.89L700.348,252.099C700.348,246.237 697.167,240.837 692.04,237.995L495.789,129.226C490.926,126.531 485.018,126.531 480.156,129.226L452.127,144.761L513.569,180.234C516.069,181.678 518.062,183.663 519.484,185.956C520.342,187.336 521.014,188.863 521.456,190.513C521.898,192.163 522.08,193.821 522.027,195.445C521.942,198.142 521.209,200.858 519.765,203.358L477.446,276.656C472.775,284.747 462.414,287.523 454.323,282.852C446.232,278.181 443.456,267.82 448.127,259.729L470.012,221.822L457.344,225.217C422.631,235.193 392.803,257.511 373.43,287.837C369.423,278.828 360.391,272.54 349.902,272.54L343.068,272.54C366.833,233.733 404.349,205.168 448.189,192.623L448.465,192.546L461.25,189.12L423.343,167.235C421.515,166.179 419.958,164.833 418.697,163.289ZM378.346,440.533C389.112,455.395 403.055,468.261 419.86,477.963C427.951,482.635 430.727,492.996 426.056,501.087C421.385,509.178 411.023,511.954 402.933,507.283C374.822,491.053 353.12,467.742 338.764,440.849C340.951,443.442 343.689,445.642 346.913,447.254C357.876,452.735 370.9,449.646 378.346,440.533ZM598.632,283.439C587.632,267.477 573.058,253.673 555.28,243.409C547.189,238.737 544.413,228.376 549.084,220.285C553.756,212.194 564.117,209.418 572.208,214.089C601.403,230.945 623.685,255.438 638.005,283.65C636.246,283.511 634.426,283.439 632.543,283.439L623.806,283.439C619.006,283.439 614.635,285.278 611.36,288.289C608.084,285.278 603.714,283.439 598.914,283.439L598.632,283.439Z"
                  style="fill:url(#_Linear1);"/>
        </g>
        <g transform="matrix(0.870195,0,0,0.870195,65.324255,32.591604)">
            <path d="M604.686,336.478L581.259,313.051L557.702,336.608C554.41,339.9 549.065,339.9 545.773,336.608C542.481,333.317 542.481,327.972 545.773,324.68L569.331,301.122L554.208,286C550.916,282.708 550.916,277.363 554.208,274.071C557.5,270.779 562.845,270.779 566.137,274.071L581.259,289.194L595.792,274.661L603.456,263.166L534.868,263.166C530.213,263.166 526.433,259.386 526.433,254.731C526.433,250.075 530.213,246.296 534.868,246.296L636.086,246.296C640.741,246.296 644.521,250.075 644.521,254.731C644.521,259.386 640.741,263.166 636.086,263.166L623.73,263.166L609.365,284.714C609.057,285.176 608.704,285.607 608.311,286L593.188,301.122L612.639,320.573L629.898,286.054C631.327,283.197 634.247,281.392 637.442,281.392C640.637,281.392 643.558,283.197 644.987,286.054L687.161,370.403C689.243,374.567 687.553,379.637 683.389,381.719C679.225,383.801 674.154,382.111 672.072,377.947L657.534,348.87L617.351,348.87L602.813,377.947C600.731,382.111 595.66,383.801 591.496,381.719C587.332,379.637 585.642,374.567 587.724,370.403L604.686,336.478ZM649.099,332.001L637.442,308.687L625.786,332.001L649.099,332.001ZM577.042,237.861C572.387,237.861 568.607,234.082 568.607,229.426C568.607,224.771 572.387,220.991 577.042,220.991L585.477,220.991C590.132,220.991 593.912,224.771 593.912,229.426C593.912,234.082 590.132,237.861 585.477,237.861L577.042,237.861Z"
                  style="fill:white;"/>
        </g>
        <g transform="matrix(11.094797,0,0,11.094797,-2248.99942,-4711.373882)">
            <path d="M275.031,451.515C275.104,451.536 275.172,451.56 275.235,451.585C275.473,451.683 275.649,451.842 275.76,452.063C275.872,452.283 275.928,452.591 275.928,452.986L275.928,454.532C275.928,454.806 276.001,455.017 276.146,455.166C276.291,455.315 276.507,455.39 276.792,455.39L276.829,455.39C276.901,455.39 276.96,455.449 276.96,455.521C276.96,455.845 276.96,456.677 276.96,457.001C276.96,457.073 276.901,457.132 276.829,457.132L276.172,457.132C275.336,457.132 274.707,456.928 274.283,456.52C273.86,456.111 273.648,455.534 273.648,454.788L273.648,452.937C273.648,452.746 273.6,452.607 273.504,452.52C273.408,452.434 273.282,452.391 273.125,452.391L272.856,452.391C272.821,452.391 272.788,452.377 272.763,452.352C272.739,452.328 272.725,452.294 272.725,452.259C272.725,451.935 272.725,451.097 272.725,450.773C272.725,450.738 272.739,450.704 272.763,450.68C272.788,450.655 272.821,450.641 272.856,450.641C272.973,450.641 273.125,450.641 273.125,450.641C273.282,450.641 273.408,450.596 273.504,450.506C273.6,450.415 273.648,450.278 273.648,450.095L273.648,448.244C273.648,447.495 273.86,446.918 274.283,446.511C274.707,446.104 275.336,445.9 276.172,445.9L276.829,445.9C276.901,445.9 276.96,445.959 276.96,446.031L276.96,447.511C276.96,447.583 276.901,447.642 276.829,447.642C276.807,447.642 276.792,447.642 276.792,447.642C276.507,447.642 276.291,447.717 276.146,447.866C276.001,448.015 275.928,448.226 275.928,448.5L275.928,450.046C275.928,450.441 275.872,450.749 275.76,450.969C275.649,451.19 275.473,451.348 275.235,451.445C275.172,451.47 275.104,451.494 275.031,451.515ZM281.138,451.515C281.066,451.494 280.999,451.47 280.937,451.445C280.701,451.348 280.525,451.19 280.411,450.969C280.296,450.749 280.239,450.441 280.239,450.046L280.239,448.5C280.239,448.226 280.166,448.015 280.021,447.866C279.876,447.717 279.659,447.642 279.372,447.642L279.335,447.642C279.262,447.642 279.203,447.583 279.203,447.511C279.203,447.187 279.203,446.355 279.203,446.031C279.203,445.959 279.262,445.9 279.335,445.9L279.991,445.9C280.83,445.9 281.461,446.104 281.884,446.511C282.307,446.918 282.519,447.495 282.519,448.244L282.519,450.095C282.519,450.278 282.567,450.415 282.663,450.506C282.759,450.596 282.884,450.641 283.039,450.641L283.307,450.641C283.379,450.641 283.438,450.7 283.438,450.773C283.438,451.097 283.438,451.935 283.438,452.259C283.438,452.332 283.379,452.391 283.307,452.391C283.19,452.391 283.039,452.391 283.039,452.391C282.884,452.391 282.759,452.434 282.663,452.52C282.567,452.607 282.519,452.746 282.519,452.937L282.519,454.788C282.519,455.534 282.307,456.111 281.884,456.52C281.461,456.928 280.83,457.132 279.991,457.132L279.335,457.132C279.262,457.132 279.203,457.073 279.203,457.001L279.203,455.521C279.203,455.449 279.262,455.39 279.335,455.39C279.356,455.39 279.372,455.39 279.372,455.39C279.659,455.39 279.876,455.315 280.021,455.166C280.166,455.017 280.239,454.806 280.239,454.532L280.239,452.986C280.239,452.591 280.296,452.283 280.411,452.063C280.525,451.842 280.701,451.683 280.937,451.585C280.999,451.56 281.066,451.536 281.138,451.515Z"
                  style="fill:white;"/>
        </g>
        <g transform="matrix(2.684216,0,0,2.684216,680.662272,260.745546)">
            <path d="M22.116,7.676C22.685,9.004 23,10.465 23,12C23,18.071 18.071,23 12,23C5.929,23 1,18.071 1,12C1,5.929 5.929,1 12,1C16.479,1 20.336,3.682 22.051,7.527C22.075,7.575 22.097,7.625 22.116,7.676Z"
                  style="fill:rgb(179,10,0);"/>
        </g>
    </g>
    <defs>
        <linearGradient id="_Linear1" x1="0" y1="0" x2="1" y2="0" gradientUnits="userSpaceOnUse"
                        gradientTransform="matrix(213.934535,-349.631083,349.631083,213.934535,384.978987,536.012607)"><stop offset="0" style="stop-color:rgb(179,10,0);stop-opacity:1"/>
            <stop offset="1" style="stop-color:rgb(255,45,32);stop-opacity:1"/></linearGradient>
    </defs>
</svg>
