<svg width="100%" height="100%" viewBox="0 0 1473 539" version="1.1" xmlns="http://www.w3.org/2000/svg" xmlns:xlink="http://www.w3.org/1999/xlink" xml:space="preserve" xmlns:serif="http://www.serif.com/" style="fill-rule:evenodd;clip-rule:evenodd;stroke-linejoin:round;stroke-miterlimit:2;">
    <g transform="matrix(1,0,0,1,-237.97212,-89.580667)">
        <g id="LINGUA-DARK" serif:id="LINGUA DARK">
            <g transform="matrix(1,0,0,1,-224.900739,66.038331)">
                <g transform="matrix(1,0,0,1,224.900739,-66.038331)">
                    <path d="M461.917,96.318C478.126,87.335 497.819,87.335 514.027,96.318L710.278,205.087C727.368,214.559 737.972,232.559 737.972,252.099L737.972,465.89C737.972,485.43 727.368,503.43 710.278,512.902L514.027,621.671C497.819,630.654 478.126,630.654 461.917,621.671L265.666,512.902C248.576,503.43 237.972,485.43 237.972,465.89L237.972,252.099C237.972,232.559 248.576,214.559 265.666,205.087L461.917,96.318ZM418.697,163.289L283.905,237.995C278.778,240.837 275.596,246.237 275.596,252.099L275.596,465.89C275.596,471.752 278.778,477.152 283.905,479.994L480.156,588.763C485.018,591.458 490.926,591.458 495.789,588.763L520.417,575.113L461.571,541.138C459.071,539.694 457.078,537.709 455.656,535.416C454.798,534.036 454.126,532.509 453.684,530.859C453.242,529.209 453.06,527.551 453.113,525.927C453.199,523.23 453.932,520.514 455.375,518.014L497.694,444.716C502.365,436.625 512.727,433.849 520.818,438.52C528.908,443.191 531.685,453.553 527.013,461.643L505.128,499.55L517.796,496.155C548.037,487.465 574.571,469.407 593.714,444.848L598.914,444.848C603.714,444.848 608.084,443.009 611.36,439.998C614.635,443.009 619.006,444.848 623.806,444.848L632.543,444.848C633.188,444.848 633.825,444.839 634.455,444.823L634.167,445.324L634.135,445.379C610.511,485.944 572.082,515.835 526.951,528.75L526.675,528.826L513.89,532.252L551.797,554.137C552.819,554.727 553.757,555.409 554.605,556.165L692.04,479.994C697.167,477.152 700.348,471.752 700.348,465.89L700.348,252.099C700.348,246.237 697.167,240.837 692.04,237.995L495.789,129.226C490.926,126.531 485.018,126.531 480.156,129.226L452.127,144.761L513.569,180.234C516.069,181.678 518.062,183.663 519.484,185.956C520.342,187.336 521.014,188.863 521.456,190.513C521.898,192.163 522.08,193.821 522.027,195.445C521.942,198.142 521.209,200.858 519.765,203.358L477.446,276.656C472.775,284.747 462.414,287.523 454.323,282.852C446.232,278.181 443.456,267.82 448.127,259.729L470.012,221.822L457.344,225.217C422.631,235.193 392.803,257.511 373.43,287.837C369.423,278.828 360.391,272.54 349.902,272.54L343.068,272.54C366.833,233.733 404.349,205.168 448.189,192.623L448.465,192.546L461.25,189.12L423.343,167.235C421.515,166.179 419.958,164.833 418.697,163.289ZM378.346,440.533C389.112,455.395 403.055,468.261 419.86,477.963C427.951,482.635 430.727,492.996 426.056,501.087C421.385,509.178 411.023,511.954 402.933,507.283C374.822,491.053 353.12,467.742 338.764,440.849C340.951,443.442 343.689,445.642 346.913,447.254C357.876,452.735 370.9,449.646 378.346,440.533ZM598.632,283.439C587.632,267.477 573.058,253.673 555.28,243.409C547.189,238.737 544.413,228.376 549.084,220.285C553.756,212.194 564.117,209.418 572.208,214.089C601.403,230.945 623.685,255.438 638.005,283.65C636.246,283.511 634.426,283.439 632.543,283.439L623.806,283.439C619.006,283.439 614.635,285.278 611.36,288.289C608.084,285.278 603.714,283.439 598.914,283.439L598.632,283.439Z" style="fill:url(#_Linear1);"/>
                </g>
                <g transform="matrix(0.870195,0,0,0.870195,65.324255,32.591604)">
                    <path d="M604.686,336.478L581.259,313.051L557.702,336.608C554.41,339.9 549.065,339.9 545.773,336.608C542.481,333.317 542.481,327.972 545.773,324.68L569.331,301.122L554.208,286C550.916,282.708 550.916,277.363 554.208,274.071C557.5,270.779 562.845,270.779 566.137,274.071L581.259,289.194L595.792,274.661L603.456,263.166L534.868,263.166C530.213,263.166 526.433,259.386 526.433,254.731C526.433,250.075 530.213,246.296 534.868,246.296L636.086,246.296C640.741,246.296 644.521,250.075 644.521,254.731C644.521,259.386 640.741,263.166 636.086,263.166L623.73,263.166L609.365,284.714C609.057,285.176 608.704,285.607 608.311,286L593.188,301.122L612.639,320.573L629.898,286.054C631.327,283.197 634.247,281.392 637.442,281.392C640.637,281.392 643.558,283.197 644.987,286.054L687.161,370.403C689.243,374.567 687.553,379.637 683.389,381.719C679.225,383.801 674.154,382.111 672.072,377.947L657.534,348.87L617.351,348.87L602.813,377.947C600.731,382.111 595.66,383.801 591.496,381.719C587.332,379.637 585.642,374.567 587.724,370.403L604.686,336.478ZM649.099,332.001L637.442,308.687L625.786,332.001L649.099,332.001ZM577.042,237.861C572.387,237.861 568.607,234.082 568.607,229.426C568.607,224.771 572.387,220.991 577.042,220.991L585.477,220.991C590.132,220.991 593.912,224.771 593.912,229.426C593.912,234.082 590.132,237.861 585.477,237.861L577.042,237.861Z" style="fill:white;"/>
                </g>
                <g transform="matrix(11.094797,0,0,11.094797,-2248.99942,-4711.373882)">
                    <path d="M275.031,451.515C275.104,451.536 275.172,451.56 275.235,451.585C275.473,451.683 275.649,451.842 275.76,452.063C275.872,452.283 275.928,452.591 275.928,452.986L275.928,454.532C275.928,454.806 276.001,455.017 276.146,455.166C276.291,455.315 276.507,455.39 276.792,455.39L276.792,455.39C276.885,455.39 276.96,455.465 276.96,455.558L276.96,456.883C276.96,457.02 276.848,457.132 276.71,457.132L276.172,457.132C275.336,457.132 274.707,456.928 274.283,456.52C273.86,456.111 273.648,455.534 273.648,454.788L273.648,452.937C273.648,452.746 273.6,452.607 273.504,452.52C273.408,452.434 273.282,452.391 273.125,452.391L272.974,452.391C272.837,452.391 272.725,452.279 272.725,452.141L272.725,450.891C272.725,450.753 272.837,450.641 272.974,450.641L273.125,450.641C273.282,450.641 273.408,450.596 273.504,450.506C273.6,450.415 273.648,450.278 273.648,450.095L273.648,448.244C273.648,447.495 273.86,446.918 274.283,446.511C274.707,446.104 275.336,445.9 276.172,445.9L276.71,445.9C276.848,445.9 276.96,446.012 276.96,446.149L276.96,447.474C276.96,447.567 276.885,447.642 276.792,447.642L276.792,447.642C276.507,447.642 276.291,447.717 276.146,447.866C276.001,448.015 275.928,448.226 275.928,448.5L275.928,450.046C275.928,450.441 275.872,450.749 275.76,450.969C275.649,451.19 275.473,451.348 275.235,451.445C275.172,451.47 275.104,451.494 275.031,451.515ZM281.138,451.515C281.066,451.494 280.999,451.47 280.937,451.445C280.701,451.348 280.525,451.19 280.411,450.969C280.296,450.749 280.239,450.441 280.239,450.046L280.239,448.5C280.239,448.226 280.166,448.015 280.021,447.866C279.876,447.717 279.659,447.642 279.372,447.642L279.372,447.642C279.279,447.642 279.203,447.567 279.203,447.474L279.203,446.149C279.203,446.012 279.315,445.9 279.453,445.9L279.991,445.9C280.83,445.9 281.461,446.104 281.884,446.511C282.307,446.918 282.519,447.495 282.519,448.244L282.519,450.095C282.519,450.278 282.567,450.415 282.663,450.506C282.759,450.596 282.884,450.641 283.039,450.641L283.189,450.641C283.327,450.641 283.438,450.753 283.438,450.891L283.438,452.141C283.438,452.279 283.327,452.391 283.189,452.391L283.039,452.391C282.884,452.391 282.759,452.434 282.663,452.52C282.567,452.607 282.519,452.746 282.519,452.937L282.519,454.788C282.519,455.534 282.307,456.111 281.884,456.52C281.461,456.928 280.83,457.132 279.991,457.132L279.453,457.132C279.315,457.132 279.203,457.02 279.203,456.883L279.203,455.558C279.203,455.465 279.279,455.39 279.372,455.39L279.372,455.39C279.659,455.39 279.876,455.315 280.021,455.166C280.166,455.017 280.239,454.806 280.239,454.532L280.239,452.986C280.239,452.591 280.296,452.283 280.411,452.063C280.525,451.842 280.701,451.683 280.937,451.585C280.999,451.56 281.066,451.536 281.138,451.515Z" style="fill:white;"/>
                </g>
                <g transform="matrix(2.684216,0,0,2.684216,680.662272,260.745546)">
                    <path d="M22.116,7.676C22.685,9.004 23,10.465 23,12C23,18.071 18.071,23 12,23C5.929,23 1,18.071 1,12C1,5.929 5.929,1 12,1C16.479,1 20.336,3.682 22.051,7.527C22.075,7.575 22.097,7.625 22.116,7.676Z" style="fill:rgb(179,10,0);"/>
                </g>
            </g>
            <g transform="matrix(1.729488,0,0,1.729488,121.42751,-737.114056)">
                <g>
                    <g transform="matrix(123.736068,0,0,123.736068,407.344721,658.382811)">
                        <path d="M0.057,-0L0.057,-0.7L0.293,-0.7L0.293,-0.183L0.609,-0.183L0.609,-0L0.057,-0Z" style="fill:rgb(179,10,0);fill-rule:nonzero;"/>
                    </g>
                    <g transform="matrix(123.736068,0,0,123.736068,483.689874,658.382811)">
                        <rect x="0.057" y="-0.7" width="0.236" height="0.7" style="fill:rgb(179,10,0);fill-rule:nonzero;"/>
                    </g>
                    <g transform="matrix(123.736068,0,0,123.736068,526.997498,658.382811)">
                        <path d="M0.057,-0L0.057,-0.7L0.251,-0.7L0.607,-0.274L0.517,-0.274L0.517,-0.7L0.747,-0.7L0.747,-0L0.553,-0L0.197,-0.426L0.287,-0.426L0.287,-0L0.057,-0Z" style="fill:rgb(179,10,0);fill-rule:nonzero;"/>
                    </g>
                    <g transform="matrix(123.736068,0,0,123.736068,626.481297,658.382811)">
                        <path d="M0.42,0.016C0.363,0.016 0.311,0.007 0.264,-0.011C0.216,-0.028 0.175,-0.053 0.14,-0.086C0.104,-0.119 0.077,-0.157 0.058,-0.202C0.039,-0.247 0.029,-0.296 0.029,-0.35C0.029,-0.404 0.039,-0.453 0.058,-0.498C0.077,-0.543 0.105,-0.581 0.14,-0.614C0.175,-0.647 0.217,-0.672 0.266,-0.69C0.314,-0.707 0.367,-0.716 0.425,-0.716C0.494,-0.716 0.556,-0.704 0.611,-0.681C0.665,-0.658 0.71,-0.624 0.745,-0.581L0.594,-0.448C0.572,-0.473 0.548,-0.492 0.522,-0.506C0.497,-0.519 0.468,-0.525 0.437,-0.525C0.411,-0.525 0.388,-0.521 0.366,-0.513C0.345,-0.505 0.328,-0.493 0.313,-0.478C0.298,-0.463 0.287,-0.444 0.279,-0.423C0.271,-0.402 0.267,-0.377 0.267,-0.35C0.267,-0.324 0.271,-0.3 0.279,-0.279C0.287,-0.257 0.298,-0.238 0.313,-0.223C0.328,-0.208 0.345,-0.196 0.365,-0.188C0.386,-0.179 0.409,-0.175 0.434,-0.175C0.461,-0.175 0.487,-0.179 0.512,-0.189C0.537,-0.198 0.564,-0.213 0.593,-0.235L0.725,-0.073C0.682,-0.044 0.634,-0.022 0.579,-0.007C0.524,0.008 0.471,0.016 0.42,0.016ZM0.725,-0.073L0.52,-0.103L0.52,-0.369L0.725,-0.369L0.725,-0.073Z" style="fill:rgb(179,10,0);fill-rule:nonzero;"/>
                    </g>
                    <g transform="matrix(123.736068,0,0,123.736068,721.634333,658.382811)">
                        <path d="M0.392,0.016C0.285,0.016 0.201,-0.013 0.141,-0.071C0.081,-0.129 0.051,-0.21 0.051,-0.315L0.051,-0.7L0.287,-0.7L0.287,-0.322C0.287,-0.269 0.297,-0.231 0.316,-0.208C0.335,-0.186 0.361,-0.175 0.394,-0.175C0.427,-0.175 0.454,-0.186 0.473,-0.208C0.491,-0.231 0.501,-0.269 0.501,-0.322L0.501,-0.7L0.733,-0.7L0.733,-0.315C0.733,-0.21 0.703,-0.129 0.643,-0.071C0.583,-0.013 0.499,0.016 0.392,0.016Z" style="fill:rgb(179,10,0);fill-rule:nonzero;"/>
                    </g>
                    <g transform="matrix(123.736068,0,0,123.736068,816.787369,658.382811)">
                        <path d="M-0.019,-0L0.287,-0.7L0.519,-0.7L0.825,-0L0.581,-0L0.355,-0.588L0.447,-0.588L0.221,-0L-0.019,-0ZM0.163,-0.122L0.223,-0.292L0.545,-0.292L0.605,-0.122L0.163,-0.122Z" style="fill:rgb(179,10,0);fill-rule:nonzero;"/>
                    </g>
                </g>
            </g>
            <g transform="matrix(0.506548,0,0,0.506548,1050.517772,166.858778)">
                <g>
                    <g transform="matrix(123.851133,0,0,123.851133,-433.453935,592.291584)">
                        <path d="M0.114,-0L0.114,-0.7L0.188,-0.7L0.188,-0.064L0.58,-0.064L0.58,-0L0.114,-0Z" style="fill:white;fill-rule:nonzero;"/>
                    </g>
                    <g transform="matrix(123.851133,0,0,123.851133,-360.497416,592.291584)">
                        <path d="M0.428,-0L0.428,-0.116L0.425,-0.135L0.425,-0.329C0.425,-0.374 0.413,-0.408 0.387,-0.432C0.362,-0.456 0.325,-0.468 0.276,-0.468C0.242,-0.468 0.209,-0.463 0.179,-0.451C0.148,-0.44 0.122,-0.425 0.101,-0.406L0.069,-0.459C0.096,-0.481 0.128,-0.499 0.165,-0.511C0.203,-0.524 0.242,-0.53 0.283,-0.53C0.351,-0.53 0.404,-0.513 0.441,-0.479C0.478,-0.446 0.496,-0.394 0.496,-0.326L0.496,-0L0.428,-0ZM0.247,0.005C0.207,0.005 0.173,-0.002 0.144,-0.014C0.116,-0.027 0.093,-0.045 0.078,-0.068C0.063,-0.091 0.055,-0.118 0.055,-0.148C0.055,-0.175 0.061,-0.2 0.074,-0.222C0.087,-0.245 0.109,-0.263 0.138,-0.277C0.168,-0.291 0.208,-0.297 0.258,-0.297L0.439,-0.297L0.439,-0.244L0.26,-0.244C0.209,-0.244 0.174,-0.235 0.155,-0.217C0.135,-0.199 0.125,-0.177 0.125,-0.15C0.125,-0.12 0.137,-0.096 0.16,-0.078C0.184,-0.06 0.216,-0.051 0.258,-0.051C0.298,-0.051 0.333,-0.06 0.362,-0.079C0.39,-0.097 0.412,-0.123 0.425,-0.158L0.441,-0.109C0.428,-0.074 0.405,-0.046 0.372,-0.026C0.339,-0.006 0.297,0.005 0.247,0.005Z" style="fill:white;fill-rule:nonzero;"/>
                    </g>
                    <g transform="matrix(123.851133,0,0,123.851133,-287.441858,592.291584)">
                        <path d="M0.099,-0L0.099,-0.525L0.167,-0.525L0.167,-0.382L0.16,-0.407C0.175,-0.447 0.2,-0.477 0.234,-0.498C0.269,-0.52 0.312,-0.53 0.363,-0.53L0.363,-0.461C0.361,-0.461 0.358,-0.462 0.355,-0.462C0.352,-0.462 0.35,-0.462 0.347,-0.462C0.292,-0.462 0.249,-0.445 0.217,-0.412C0.186,-0.378 0.17,-0.33 0.17,-0.268L0.17,-0L0.099,-0Z" style="fill:white;fill-rule:nonzero;"/>
                    </g>
                    <g transform="matrix(123.851133,0,0,123.851133,-242.839047,592.291584)">
                        <path d="M0.428,-0L0.428,-0.116L0.425,-0.135L0.425,-0.329C0.425,-0.374 0.413,-0.408 0.387,-0.432C0.362,-0.456 0.325,-0.468 0.276,-0.468C0.242,-0.468 0.209,-0.463 0.179,-0.451C0.148,-0.44 0.122,-0.425 0.101,-0.406L0.069,-0.459C0.096,-0.481 0.128,-0.499 0.165,-0.511C0.203,-0.524 0.242,-0.53 0.283,-0.53C0.351,-0.53 0.404,-0.513 0.441,-0.479C0.478,-0.446 0.496,-0.394 0.496,-0.326L0.496,-0L0.428,-0ZM0.247,0.005C0.207,0.005 0.173,-0.002 0.144,-0.014C0.116,-0.027 0.093,-0.045 0.078,-0.068C0.063,-0.091 0.055,-0.118 0.055,-0.148C0.055,-0.175 0.061,-0.2 0.074,-0.222C0.087,-0.245 0.109,-0.263 0.138,-0.277C0.168,-0.291 0.208,-0.297 0.258,-0.297L0.439,-0.297L0.439,-0.244L0.26,-0.244C0.209,-0.244 0.174,-0.235 0.155,-0.217C0.135,-0.199 0.125,-0.177 0.125,-0.15C0.125,-0.12 0.137,-0.096 0.16,-0.078C0.184,-0.06 0.216,-0.051 0.258,-0.051C0.298,-0.051 0.333,-0.06 0.362,-0.079C0.39,-0.097 0.412,-0.123 0.425,-0.158L0.441,-0.109C0.428,-0.074 0.405,-0.046 0.372,-0.026C0.339,-0.006 0.297,0.005 0.247,0.005Z" style="fill:white;fill-rule:nonzero;"/>
                    </g>
                    <g transform="matrix(123.851133,0,0,123.851133,-171.022,592.291584)">
                        <path d="M0.234,-0L0.001,-0.525L0.075,-0.525L0.289,-0.038L0.254,-0.038L0.471,-0.525L0.541,-0.525L0.307,-0L0.234,-0Z" style="fill:white;fill-rule:nonzero;"/>
                    </g>
                    <g transform="matrix(123.851133,0,0,123.851133,-105.752661,592.291584)">
                        <path d="M0.322,0.005C0.268,0.005 0.22,-0.007 0.178,-0.03C0.137,-0.053 0.104,-0.084 0.081,-0.125C0.058,-0.165 0.046,-0.211 0.046,-0.263C0.046,-0.315 0.057,-0.361 0.079,-0.401C0.102,-0.441 0.132,-0.473 0.171,-0.496C0.21,-0.519 0.254,-0.53 0.303,-0.53C0.352,-0.53 0.396,-0.519 0.434,-0.497C0.473,-0.474 0.503,-0.443 0.525,-0.403C0.547,-0.362 0.558,-0.316 0.558,-0.263C0.558,-0.26 0.558,-0.257 0.558,-0.253C0.557,-0.249 0.557,-0.245 0.557,-0.241L0.1,-0.241L0.1,-0.294L0.519,-0.294L0.491,-0.273C0.491,-0.311 0.483,-0.345 0.467,-0.374C0.451,-0.404 0.428,-0.427 0.4,-0.444C0.372,-0.461 0.34,-0.469 0.303,-0.469C0.267,-0.469 0.234,-0.461 0.206,-0.444C0.178,-0.427 0.155,-0.404 0.139,-0.374C0.123,-0.344 0.116,-0.31 0.116,-0.272L0.116,-0.26C0.116,-0.22 0.124,-0.185 0.142,-0.155C0.16,-0.124 0.184,-0.101 0.216,-0.084C0.247,-0.066 0.283,-0.058 0.324,-0.058C0.356,-0.058 0.386,-0.064 0.414,-0.075C0.441,-0.087 0.465,-0.104 0.485,-0.127L0.525,-0.081C0.501,-0.053 0.472,-0.032 0.437,-0.017C0.402,-0.003 0.364,0.005 0.322,0.005Z" style="fill:white;fill-rule:nonzero;"/>
                    </g>
                    <g transform="matrix(123.851133,0,0,123.851133,-30.94668,592.291584)">
                        <rect x="0.099" y="-0.742" width="0.071" height="0.742" style="fill:white;fill-rule:nonzero;"/>
                    </g>
                    <g transform="matrix(123.851133,0,0,123.851133,34.908902,592.291584)">
                        <path d="M0.25,-0L0.25,-0.636L0.004,-0.636L0.004,-0.7L0.57,-0.7L0.57,-0.636L0.324,-0.636L0.324,-0L0.25,-0Z" style="fill:white;fill-rule:nonzero;"/>
                    </g>
                    <g transform="matrix(123.851133,0,0,123.851133,104.273634,592.291584)">
                        <path d="M0.099,-0L0.099,-0.525L0.167,-0.525L0.167,-0.382L0.16,-0.407C0.175,-0.447 0.2,-0.477 0.234,-0.498C0.269,-0.52 0.312,-0.53 0.363,-0.53L0.363,-0.461C0.361,-0.461 0.358,-0.462 0.355,-0.462C0.352,-0.462 0.35,-0.462 0.347,-0.462C0.292,-0.462 0.249,-0.445 0.217,-0.412C0.186,-0.378 0.17,-0.33 0.17,-0.268L0.17,-0L0.099,-0Z" style="fill:white;fill-rule:nonzero;"/>
                    </g>
                    <g transform="matrix(123.851133,0,0,123.851133,148.876445,592.291584)">
                        <path d="M0.428,-0L0.428,-0.116L0.425,-0.135L0.425,-0.329C0.425,-0.374 0.413,-0.408 0.387,-0.432C0.362,-0.456 0.325,-0.468 0.276,-0.468C0.242,-0.468 0.209,-0.463 0.179,-0.451C0.148,-0.44 0.122,-0.425 0.101,-0.406L0.069,-0.459C0.096,-0.481 0.128,-0.499 0.165,-0.511C0.203,-0.524 0.242,-0.53 0.283,-0.53C0.351,-0.53 0.404,-0.513 0.441,-0.479C0.478,-0.446 0.496,-0.394 0.496,-0.326L0.496,-0L0.428,-0ZM0.247,0.005C0.207,0.005 0.173,-0.002 0.144,-0.014C0.116,-0.027 0.093,-0.045 0.078,-0.068C0.063,-0.091 0.055,-0.118 0.055,-0.148C0.055,-0.175 0.061,-0.2 0.074,-0.222C0.087,-0.245 0.109,-0.263 0.138,-0.277C0.168,-0.291 0.208,-0.297 0.258,-0.297L0.439,-0.297L0.439,-0.244L0.26,-0.244C0.209,-0.244 0.174,-0.235 0.155,-0.217C0.135,-0.199 0.125,-0.177 0.125,-0.15C0.125,-0.12 0.137,-0.096 0.16,-0.078C0.184,-0.06 0.216,-0.051 0.258,-0.051C0.298,-0.051 0.333,-0.06 0.362,-0.079C0.39,-0.097 0.412,-0.123 0.425,-0.158L0.441,-0.109C0.428,-0.074 0.405,-0.046 0.372,-0.026C0.339,-0.006 0.297,0.005 0.247,0.005Z" style="fill:white;fill-rule:nonzero;"/>
                    </g>
                    <g transform="matrix(123.851133,0,0,123.851133,221.932003,592.291584)">
                        <path d="M0.099,-0L0.099,-0.525L0.167,-0.525L0.167,-0.381L0.156,-0.408C0.173,-0.446 0.2,-0.476 0.236,-0.498C0.272,-0.519 0.316,-0.53 0.367,-0.53C0.41,-0.53 0.447,-0.522 0.48,-0.505C0.512,-0.489 0.537,-0.464 0.555,-0.431C0.574,-0.397 0.583,-0.355 0.583,-0.305L0.583,-0L0.512,-0L0.512,-0.298C0.512,-0.353 0.498,-0.395 0.47,-0.424C0.443,-0.452 0.404,-0.466 0.354,-0.466C0.317,-0.466 0.284,-0.459 0.256,-0.444C0.229,-0.429 0.207,-0.407 0.192,-0.379C0.178,-0.35 0.17,-0.316 0.17,-0.276L0.17,-0L0.099,-0Z" style="fill:white;fill-rule:nonzero;"/>
                    </g>
                    <g transform="matrix(123.851133,0,0,123.851133,305.717243,592.291584)">
                        <path d="M0.24,0.005C0.197,0.005 0.156,-0.001 0.117,-0.014C0.078,-0.026 0.048,-0.042 0.026,-0.06L0.058,-0.116C0.079,-0.1 0.106,-0.086 0.14,-0.074C0.173,-0.063 0.208,-0.057 0.245,-0.057C0.295,-0.057 0.331,-0.065 0.353,-0.08C0.375,-0.096 0.386,-0.117 0.386,-0.143C0.386,-0.162 0.38,-0.177 0.368,-0.188C0.355,-0.199 0.339,-0.208 0.319,-0.213C0.299,-0.219 0.276,-0.224 0.252,-0.228C0.228,-0.232 0.203,-0.237 0.179,-0.242C0.154,-0.248 0.132,-0.256 0.112,-0.266C0.092,-0.276 0.075,-0.29 0.063,-0.308C0.051,-0.326 0.045,-0.35 0.045,-0.38C0.045,-0.409 0.053,-0.434 0.069,-0.457C0.085,-0.48 0.109,-0.498 0.14,-0.511C0.171,-0.524 0.209,-0.53 0.253,-0.53C0.287,-0.53 0.321,-0.526 0.355,-0.517C0.389,-0.508 0.417,-0.496 0.439,-0.481L0.408,-0.424C0.385,-0.44 0.36,-0.452 0.333,-0.458C0.307,-0.465 0.28,-0.469 0.253,-0.469C0.206,-0.469 0.171,-0.461 0.149,-0.444C0.127,-0.428 0.116,-0.407 0.116,-0.382C0.116,-0.362 0.122,-0.346 0.134,-0.335C0.146,-0.323 0.162,-0.314 0.183,-0.308C0.203,-0.302 0.225,-0.297 0.25,-0.293C0.274,-0.289 0.298,-0.284 0.323,-0.279C0.347,-0.273 0.369,-0.265 0.389,-0.256C0.41,-0.246 0.426,-0.232 0.438,-0.214C0.45,-0.197 0.457,-0.174 0.457,-0.145C0.457,-0.114 0.448,-0.088 0.431,-0.066C0.414,-0.043 0.389,-0.026 0.357,-0.014C0.325,-0.001 0.286,0.005 0.24,0.005Z" style="fill:white;fill-rule:nonzero;"/>
                    </g>
                    <g transform="matrix(123.851133,0,0,123.851133,366.218365,592.291584)">
                        <rect x="0.099" y="-0.742" width="0.071" height="0.742" style="fill:white;fill-rule:nonzero;"/>
                    </g>
                    <g transform="matrix(123.851133,0,0,123.851133,399.56723,592.291584)">
                        <path d="M0.428,-0L0.428,-0.116L0.425,-0.135L0.425,-0.329C0.425,-0.374 0.413,-0.408 0.387,-0.432C0.362,-0.456 0.325,-0.468 0.276,-0.468C0.242,-0.468 0.209,-0.463 0.179,-0.451C0.148,-0.44 0.122,-0.425 0.101,-0.406L0.069,-0.459C0.096,-0.481 0.128,-0.499 0.165,-0.511C0.203,-0.524 0.242,-0.53 0.283,-0.53C0.351,-0.53 0.404,-0.513 0.441,-0.479C0.478,-0.446 0.496,-0.394 0.496,-0.326L0.496,-0L0.428,-0ZM0.247,0.005C0.207,0.005 0.173,-0.002 0.144,-0.014C0.116,-0.027 0.093,-0.045 0.078,-0.068C0.063,-0.091 0.055,-0.118 0.055,-0.148C0.055,-0.175 0.061,-0.2 0.074,-0.222C0.087,-0.245 0.109,-0.263 0.138,-0.277C0.168,-0.291 0.208,-0.297 0.258,-0.297L0.439,-0.297L0.439,-0.244L0.26,-0.244C0.209,-0.244 0.174,-0.235 0.155,-0.217C0.135,-0.199 0.125,-0.177 0.125,-0.15C0.125,-0.12 0.137,-0.096 0.16,-0.078C0.184,-0.06 0.216,-0.051 0.258,-0.051C0.298,-0.051 0.333,-0.06 0.362,-0.079C0.39,-0.097 0.412,-0.123 0.425,-0.158L0.441,-0.109C0.428,-0.074 0.405,-0.046 0.372,-0.026C0.339,-0.006 0.297,0.005 0.247,0.005Z" style="fill:white;fill-rule:nonzero;"/>
                    </g>
                    <g transform="matrix(123.851133,0,0,123.851133,472.622788,592.291584)">
                        <path d="M0.265,0.005C0.216,0.005 0.178,-0.009 0.151,-0.035C0.124,-0.062 0.111,-0.1 0.111,-0.148L0.111,-0.641L0.182,-0.641L0.182,-0.152C0.182,-0.121 0.19,-0.097 0.205,-0.081C0.221,-0.064 0.243,-0.056 0.273,-0.056C0.304,-0.056 0.33,-0.065 0.351,-0.083L0.376,-0.032C0.362,-0.019 0.345,-0.01 0.326,-0.004C0.306,0.002 0.286,0.005 0.265,0.005ZM0.017,-0.466L0.017,-0.525L0.342,-0.525L0.342,-0.466L0.017,-0.466Z" style="fill:white;fill-rule:nonzero;"/>
                    </g>
                    <g transform="matrix(123.851133,0,0,123.851133,522.852572,592.291584)">
                        <path d="M0.099,-0L0.099,-0.525L0.17,-0.525L0.17,-0L0.099,-0ZM0.135,-0.641C0.12,-0.641 0.108,-0.646 0.098,-0.656C0.088,-0.666 0.083,-0.678 0.083,-0.692C0.083,-0.706 0.088,-0.718 0.098,-0.728C0.108,-0.737 0.12,-0.742 0.135,-0.742C0.15,-0.742 0.162,-0.737 0.172,-0.728C0.182,-0.719 0.187,-0.707 0.187,-0.693C0.187,-0.678 0.182,-0.666 0.173,-0.656C0.163,-0.646 0.15,-0.641 0.135,-0.641Z" style="fill:white;fill-rule:nonzero;"/>
                    </g>
                    <g transform="matrix(123.851133,0,0,123.851133,556.201436,592.291584)">
                        <path d="M0.314,0.005C0.262,0.005 0.217,-0.007 0.176,-0.03C0.136,-0.053 0.104,-0.084 0.081,-0.125C0.058,-0.165 0.046,-0.211 0.046,-0.263C0.046,-0.315 0.058,-0.362 0.081,-0.402C0.105,-0.442 0.136,-0.473 0.176,-0.496C0.216,-0.519 0.262,-0.53 0.314,-0.53C0.365,-0.53 0.411,-0.519 0.451,-0.496C0.492,-0.473 0.523,-0.442 0.546,-0.402C0.569,-0.362 0.581,-0.316 0.581,-0.263C0.581,-0.211 0.569,-0.165 0.546,-0.125C0.523,-0.084 0.492,-0.053 0.451,-0.03C0.411,-0.007 0.365,0.005 0.314,0.005ZM0.314,-0.058C0.351,-0.058 0.385,-0.066 0.414,-0.084C0.444,-0.101 0.467,-0.125 0.484,-0.156C0.501,-0.187 0.509,-0.222 0.509,-0.263C0.509,-0.304 0.501,-0.34 0.484,-0.371C0.467,-0.401 0.444,-0.425 0.414,-0.442C0.385,-0.459 0.351,-0.468 0.314,-0.468C0.276,-0.468 0.243,-0.459 0.214,-0.442C0.184,-0.425 0.161,-0.401 0.144,-0.371C0.126,-0.34 0.118,-0.304 0.118,-0.263C0.118,-0.222 0.126,-0.187 0.144,-0.156C0.161,-0.125 0.184,-0.101 0.214,-0.084C0.243,-0.066 0.276,-0.058 0.314,-0.058Z" style="fill:white;fill-rule:nonzero;"/>
                    </g>
                    <g transform="matrix(123.851133,0,0,123.851133,633.855993,592.291584)">
                        <path d="M0.099,-0L0.099,-0.525L0.167,-0.525L0.167,-0.381L0.156,-0.408C0.173,-0.446 0.2,-0.476 0.236,-0.498C0.272,-0.519 0.316,-0.53 0.367,-0.53C0.41,-0.53 0.447,-0.522 0.48,-0.505C0.512,-0.489 0.537,-0.464 0.555,-0.431C0.574,-0.397 0.583,-0.355 0.583,-0.305L0.583,-0L0.512,-0L0.512,-0.298C0.512,-0.353 0.498,-0.395 0.47,-0.424C0.443,-0.452 0.404,-0.466 0.354,-0.466C0.317,-0.466 0.284,-0.459 0.256,-0.444C0.229,-0.429 0.207,-0.407 0.192,-0.379C0.178,-0.35 0.17,-0.316 0.17,-0.276L0.17,-0L0.099,-0Z" style="fill:white;fill-rule:nonzero;"/>
                    </g>
                    <g transform="matrix(123.851133,0,0,123.851133,750.14795,592.291584)">
                        <path d="M0.114,-0L0.114,-0.7L0.175,-0.7L0.495,-0.154L0.463,-0.154L0.78,-0.7L0.841,-0.7L0.841,-0L0.77,-0L0.77,-0.589L0.787,-0.589L0.495,-0.089L0.46,-0.089L0.166,-0.589L0.185,-0.589L0.185,-0L0.114,-0Z" style="fill:white;fill-rule:nonzero;"/>
                    </g>
                    <g transform="matrix(123.851133,0,0,123.851133,868.479455,592.291584)">
                        <path d="M0.428,-0L0.428,-0.116L0.425,-0.135L0.425,-0.329C0.425,-0.374 0.413,-0.408 0.387,-0.432C0.362,-0.456 0.325,-0.468 0.276,-0.468C0.242,-0.468 0.209,-0.463 0.179,-0.451C0.148,-0.44 0.122,-0.425 0.101,-0.406L0.069,-0.459C0.096,-0.481 0.128,-0.499 0.165,-0.511C0.203,-0.524 0.242,-0.53 0.283,-0.53C0.351,-0.53 0.404,-0.513 0.441,-0.479C0.478,-0.446 0.496,-0.394 0.496,-0.326L0.496,-0L0.428,-0ZM0.247,0.005C0.207,0.005 0.173,-0.002 0.144,-0.014C0.116,-0.027 0.093,-0.045 0.078,-0.068C0.063,-0.091 0.055,-0.118 0.055,-0.148C0.055,-0.175 0.061,-0.2 0.074,-0.222C0.087,-0.245 0.109,-0.263 0.138,-0.277C0.168,-0.291 0.208,-0.297 0.258,-0.297L0.439,-0.297L0.439,-0.244L0.26,-0.244C0.209,-0.244 0.174,-0.235 0.155,-0.217C0.135,-0.199 0.125,-0.177 0.125,-0.15C0.125,-0.12 0.137,-0.096 0.16,-0.078C0.184,-0.06 0.216,-0.051 0.258,-0.051C0.298,-0.051 0.333,-0.06 0.362,-0.079C0.39,-0.097 0.412,-0.123 0.425,-0.158L0.441,-0.109C0.428,-0.074 0.405,-0.046 0.372,-0.026C0.339,-0.006 0.297,0.005 0.247,0.005Z" style="fill:white;fill-rule:nonzero;"/>
                    </g>
                    <g transform="matrix(123.851133,0,0,123.851133,941.535013,592.291584)">
                        <path d="M0.099,-0L0.099,-0.525L0.167,-0.525L0.167,-0.381L0.156,-0.408C0.173,-0.446 0.2,-0.476 0.236,-0.498C0.272,-0.519 0.316,-0.53 0.367,-0.53C0.41,-0.53 0.447,-0.522 0.48,-0.505C0.512,-0.489 0.537,-0.464 0.555,-0.431C0.574,-0.397 0.583,-0.355 0.583,-0.305L0.583,-0L0.512,-0L0.512,-0.298C0.512,-0.353 0.498,-0.395 0.47,-0.424C0.443,-0.452 0.404,-0.466 0.354,-0.466C0.317,-0.466 0.284,-0.459 0.256,-0.444C0.229,-0.429 0.207,-0.407 0.192,-0.379C0.178,-0.35 0.17,-0.316 0.17,-0.276L0.17,-0L0.099,-0Z" style="fill:white;fill-rule:nonzero;"/>
                    </g>
                    <g transform="matrix(123.851133,0,0,123.851133,1025.320253,592.291584)">
                        <path d="M0.428,-0L0.428,-0.116L0.425,-0.135L0.425,-0.329C0.425,-0.374 0.413,-0.408 0.387,-0.432C0.362,-0.456 0.325,-0.468 0.276,-0.468C0.242,-0.468 0.209,-0.463 0.179,-0.451C0.148,-0.44 0.122,-0.425 0.101,-0.406L0.069,-0.459C0.096,-0.481 0.128,-0.499 0.165,-0.511C0.203,-0.524 0.242,-0.53 0.283,-0.53C0.351,-0.53 0.404,-0.513 0.441,-0.479C0.478,-0.446 0.496,-0.394 0.496,-0.326L0.496,-0L0.428,-0ZM0.247,0.005C0.207,0.005 0.173,-0.002 0.144,-0.014C0.116,-0.027 0.093,-0.045 0.078,-0.068C0.063,-0.091 0.055,-0.118 0.055,-0.148C0.055,-0.175 0.061,-0.2 0.074,-0.222C0.087,-0.245 0.109,-0.263 0.138,-0.277C0.168,-0.291 0.208,-0.297 0.258,-0.297L0.439,-0.297L0.439,-0.244L0.26,-0.244C0.209,-0.244 0.174,-0.235 0.155,-0.217C0.135,-0.199 0.125,-0.177 0.125,-0.15C0.125,-0.12 0.137,-0.096 0.16,-0.078C0.184,-0.06 0.216,-0.051 0.258,-0.051C0.298,-0.051 0.333,-0.06 0.362,-0.079C0.39,-0.097 0.412,-0.123 0.425,-0.158L0.441,-0.109C0.428,-0.074 0.405,-0.046 0.372,-0.026C0.339,-0.006 0.297,0.005 0.247,0.005Z" style="fill:white;fill-rule:nonzero;"/>
                    </g>
                    <g transform="matrix(123.851133,0,0,123.851133,1098.375811,592.291584)">
                        <path d="M0.323,0.199C0.275,0.199 0.229,0.192 0.185,0.178C0.141,0.164 0.105,0.144 0.078,0.118L0.114,0.064C0.139,0.086 0.17,0.104 0.206,0.117C0.242,0.13 0.28,0.136 0.321,0.136C0.387,0.136 0.437,0.12 0.468,0.089C0.5,0.058 0.515,0.01 0.515,-0.055L0.515,-0.186L0.525,-0.276L0.518,-0.366L0.518,-0.525L0.586,-0.525L0.586,-0.064C0.586,0.027 0.564,0.093 0.52,0.135C0.475,0.178 0.41,0.199 0.323,0.199ZM0.31,-0.02C0.26,-0.02 0.215,-0.031 0.175,-0.053C0.135,-0.075 0.104,-0.105 0.081,-0.143C0.058,-0.181 0.046,-0.226 0.046,-0.276C0.046,-0.326 0.058,-0.371 0.081,-0.409C0.104,-0.447 0.135,-0.477 0.175,-0.498C0.215,-0.52 0.26,-0.53 0.31,-0.53C0.357,-0.53 0.399,-0.52 0.436,-0.501C0.473,-0.482 0.503,-0.453 0.525,-0.415C0.547,-0.377 0.558,-0.331 0.558,-0.276C0.558,-0.221 0.547,-0.175 0.525,-0.137C0.503,-0.099 0.473,-0.07 0.436,-0.05C0.399,-0.03 0.357,-0.02 0.31,-0.02ZM0.317,-0.083C0.356,-0.083 0.39,-0.091 0.42,-0.107C0.45,-0.124 0.474,-0.146 0.491,-0.175C0.508,-0.205 0.516,-0.238 0.516,-0.276C0.516,-0.314 0.508,-0.347 0.491,-0.376C0.474,-0.405 0.45,-0.427 0.42,-0.443C0.39,-0.46 0.356,-0.468 0.317,-0.468C0.279,-0.468 0.245,-0.46 0.214,-0.443C0.184,-0.427 0.16,-0.405 0.143,-0.376C0.126,-0.347 0.118,-0.314 0.118,-0.276C0.118,-0.238 0.126,-0.205 0.143,-0.175C0.16,-0.146 0.184,-0.124 0.214,-0.107C0.245,-0.091 0.279,-0.083 0.317,-0.083Z" style="fill:white;fill-rule:nonzero;"/>
                    </g>
                    <g transform="matrix(123.851133,0,0,123.851133,1183.275711,592.291584)">
                        <path d="M0.322,0.005C0.268,0.005 0.22,-0.007 0.178,-0.03C0.137,-0.053 0.104,-0.084 0.081,-0.125C0.058,-0.165 0.046,-0.211 0.046,-0.263C0.046,-0.315 0.057,-0.361 0.079,-0.401C0.102,-0.441 0.132,-0.473 0.171,-0.496C0.21,-0.519 0.254,-0.53 0.303,-0.53C0.352,-0.53 0.396,-0.519 0.434,-0.497C0.473,-0.474 0.503,-0.443 0.525,-0.403C0.547,-0.362 0.558,-0.316 0.558,-0.263C0.558,-0.26 0.558,-0.257 0.558,-0.253C0.557,-0.249 0.557,-0.245 0.557,-0.241L0.1,-0.241L0.1,-0.294L0.519,-0.294L0.491,-0.273C0.491,-0.311 0.483,-0.345 0.467,-0.374C0.451,-0.404 0.428,-0.427 0.4,-0.444C0.372,-0.461 0.34,-0.469 0.303,-0.469C0.267,-0.469 0.234,-0.461 0.206,-0.444C0.178,-0.427 0.155,-0.404 0.139,-0.374C0.123,-0.344 0.116,-0.31 0.116,-0.272L0.116,-0.26C0.116,-0.22 0.124,-0.185 0.142,-0.155C0.16,-0.124 0.184,-0.101 0.216,-0.084C0.247,-0.066 0.283,-0.058 0.324,-0.058C0.356,-0.058 0.386,-0.064 0.414,-0.075C0.441,-0.087 0.465,-0.104 0.485,-0.127L0.525,-0.081C0.501,-0.053 0.472,-0.032 0.437,-0.017C0.402,-0.003 0.364,0.005 0.322,0.005Z" style="fill:white;fill-rule:nonzero;"/>
                    </g>
                    <g transform="matrix(123.851133,0,0,123.851133,1258.081692,592.291584)">
                        <path d="M0.099,-0L0.099,-0.525L0.167,-0.525L0.167,-0.382L0.16,-0.407C0.175,-0.447 0.2,-0.477 0.234,-0.498C0.269,-0.52 0.312,-0.53 0.363,-0.53L0.363,-0.461C0.361,-0.461 0.358,-0.462 0.355,-0.462C0.352,-0.462 0.35,-0.462 0.347,-0.462C0.292,-0.462 0.249,-0.445 0.217,-0.412C0.186,-0.378 0.17,-0.33 0.17,-0.268L0.17,-0L0.099,-0Z" style="fill:white;fill-rule:nonzero;"/>
                    </g>
                </g>
            </g>
        </g>
    </g>
    <defs>
        <linearGradient id="_Linear1" x1="0" y1="0" x2="1" y2="0" gradientUnits="userSpaceOnUse" gradientTransform="matrix(213.934535,-349.631083,349.631083,213.934535,384.978987,536.012607)"><stop offset="0" style="stop-color:rgb(179,10,0);stop-opacity:1"/><stop offset="1" style="stop-color:rgb(255,45,32);stop-opacity:1"/></linearGradient>
    </defs>
</svg>
