<svg width="100%" height="100%" viewBox="0 0 200 200" version="1.1" xmlns="http://www.w3.org/2000/svg"
     xml:space="preserve" style="fill-rule:evenodd;clip-rule:evenodd;stroke-linejoin:round;stroke-miterlimit:2;">
    <style>
        .red {
            fill: rgb(179,10,0);
        }
        .gray {
            fill: rgb(83,86,90);
        }
  </style>
    <g transform="matrix(4.166667,0,0,4.166667,0,0)">
        <g transform="matrix(0.089082,0,0,0.089082,-39.504352,-2.097205)">
            <g transform="matrix(-8.463758,14.659659,-14.659659,-8.463758,989.951899,220.296906)">
                <path d="M-0.768,21.121C-1.706,20.557 -2.288,19.55 -2.307,18.455L-2.539,5.202C-2.559,4.048 -1.951,2.974 -0.952,2.397L9.986,-3.918C10.986,-4.495 12.22,-4.485 13.209,-3.89L24.571,2.938C25.509,3.501 26.091,4.509 26.11,5.604L26.342,18.857C26.362,20.011 25.755,21.085 24.755,21.662L13.817,27.977C12.817,28.554 11.583,28.543 10.594,27.949L-0.768,21.121ZM3.935,21.354L11.739,26.044C12.036,26.222 12.406,26.225 12.706,26.052L23.644,19.737C23.943,19.564 24.126,19.242 24.12,18.896L23.888,5.642C23.882,5.314 23.707,5.012 23.426,4.843L22,3.986L22,8C22,8.171 21.957,8.331 21.882,8.472C21.837,8.556 21.778,8.636 21.707,8.707C21.636,8.778 21.556,8.837 21.472,8.882C21.331,8.957 21.171,9 21,9L16,9C15.448,9 15,8.552 15,8C15,7.448 15.448,7 16,7L18.586,7L18.038,6.452C16.7,5.162 14.992,4.338 13.171,4.084L13.017,3.818C12.875,3.572 12.652,3.403 12.401,3.324C12.459,3.068 12.423,2.79 12.282,2.544L12.024,2.097C12.005,2.064 11.985,2.032 11.966,2L12.004,2C14.777,2.01 17.441,3.094 19.435,5.021L19.447,5.033L20,5.586L20,3C20,2.93 20.007,2.862 20.021,2.796L12.064,-1.985C11.767,-2.163 11.397,-2.167 11.097,-1.993L0.16,4.322C-0.14,4.495 -0.323,4.817 -0.317,5.163L-0.084,18.416C-0.079,18.745 0.096,19.047 0.377,19.216L2,20.191L2,16C2,15.829 2.043,15.669 2.118,15.528C2.163,15.444 2.222,15.364 2.293,15.293C2.364,15.222 2.444,15.163 2.528,15.118C2.669,15.043 2.829,15 3,15L8,15C8.552,15 9,15.448 9,16C9,16.552 8.552,17 8,17L5.414,17L5.962,17.548C7.498,19.029 9.521,19.896 11.644,19.991C11.302,20.462 11.247,21.11 11.557,21.647L11.759,21.996C9.071,21.927 6.502,20.851 4.565,18.979L4.553,18.967L4,18.414L4,21C4,21.125 3.977,21.244 3.935,21.354ZM4.767,8.6C4.276,9.634 4,10.787 4,12C4,12.552 3.552,13 3,13C2.448,13 2,12.552 2,12C2,10.008 2.595,8.145 3.615,6.579C3.66,6.673 3.71,6.768 3.766,6.865L4.024,7.312C4.166,7.557 4.389,7.727 4.64,7.805C4.582,8.062 4.617,8.34 4.759,8.585L4.767,8.6ZM19.311,15.229C19.754,14.24 20,13.146 20,12C20,11.448 20.448,11 21,11C21.552,11 22,11.448 22,12C22,13.918 21.448,15.716 20.497,17.245C20.565,17.057 20.596,16.852 20.584,16.639C20.54,15.916 19.997,15.341 19.311,15.229Z"
                      style="fill:url(#_Linear1);"/>
            </g>
            <g transform="matrix(2.684216,0,0,2.684216,680.662272,260.745546)">
                <path d="M22.116,7.676C22.685,9.004 23,10.465 23,12C23,18.071 18.071,23 12,23C5.929,23 1,18.071 1,12C1,5.929 5.929,1 12,1C16.479,1 20.336,3.682 22.051,7.527C22.075,7.575 22.097,7.625 22.116,7.676Z"
                      class="red"/>
            </g>
            <g transform="matrix(0.870195,0,0,0.870195,65.324255,32.591604)">
                <path d="M603.456,263.166L534.868,263.166C530.213,263.166 526.433,259.386 526.433,254.731C526.433,250.075 530.213,246.296 534.868,246.296L636.086,246.296C640.741,246.296 644.521,250.075 644.521,254.731C644.521,259.386 640.741,263.166 636.086,263.166L623.73,263.166L609.365,284.714C609.057,285.176 608.704,285.607 608.311,286L593.188,301.122L616.746,324.68C620.037,327.972 620.037,333.317 616.746,336.608C613.454,339.9 608.109,339.9 604.817,336.608L581.259,313.051L557.702,336.608C554.41,339.9 549.065,339.9 545.773,336.608C542.481,333.317 542.481,327.972 545.773,324.68L569.331,301.122L554.208,286C550.916,282.708 550.916,277.363 554.208,274.071C557.5,270.779 562.845,270.779 566.137,274.071L581.259,289.194L595.792,274.661L603.456,263.166ZM577.042,237.861C572.387,237.861 568.607,234.082 568.607,229.426C568.607,224.771 572.387,220.991 577.042,220.991L585.477,220.991C590.132,220.991 593.912,224.771 593.912,229.426C593.912,234.082 590.132,237.861 585.477,237.861L577.042,237.861Z"
                      class="gray"/>
            </g>
            <g transform="matrix(0.870195,0,0,0.870195,44.484902,11.752251)">
                <path d="M641.299,372.818L626.76,401.895C624.679,406.059 619.608,407.749 615.444,405.667C611.28,403.585 609.59,398.514 611.672,394.351L653.846,310.002C655.275,307.145 658.195,305.34 661.39,305.34C664.585,305.34 667.506,307.145 668.935,310.002L711.109,394.351C713.191,398.514 711.5,403.585 707.337,405.667C703.173,407.749 698.102,406.059 696.02,401.895L681.482,372.818L641.299,372.818ZM673.047,355.949L661.39,332.635L649.734,355.949L673.047,355.949Z"
                      class="gray"/>
            </g>
            <g transform="matrix(11.094797,0,0,11.094797,-2248.99942,-4711.373882)">
                <path d="M275.031,451.515C275.104,451.536 275.172,451.56 275.235,451.585C275.473,451.683 275.649,451.842 275.76,452.063C275.872,452.283 275.928,452.591 275.928,452.986L275.928,454.532C275.928,454.806 276.001,455.017 276.146,455.166C276.291,455.315 276.507,455.39 276.792,455.39L276.96,455.39L276.96,456.345C276.96,456.554 276.877,456.754 276.729,456.901C276.582,457.049 276.381,457.132 276.173,457.132C276.172,457.132 276.172,457.132 276.172,457.132C275.336,457.132 274.707,456.928 274.283,456.52C273.86,456.111 273.648,455.534 273.648,454.788L273.648,452.937C273.648,452.746 273.6,452.607 273.504,452.52C273.408,452.434 273.282,452.391 273.125,452.391L273.125,452.391C273.019,452.391 272.917,452.349 272.842,452.274C272.767,452.199 272.725,452.097 272.725,451.991C272.725,451.707 272.725,451.326 272.725,451.041C272.725,450.935 272.767,450.833 272.842,450.758C272.917,450.683 273.019,450.641 273.125,450.641C273.125,450.641 273.125,450.641 273.125,450.641C273.282,450.641 273.408,450.596 273.504,450.506C273.6,450.415 273.648,450.278 273.648,450.095L273.648,448.244C273.648,447.495 273.86,446.918 274.283,446.511C274.707,446.104 275.336,445.9 276.172,445.9L276.173,445.9C276.381,445.9 276.582,445.983 276.729,446.131C276.877,446.278 276.96,446.478 276.96,446.687C276.96,447.149 276.96,447.642 276.96,447.642L276.792,447.642C276.507,447.642 276.291,447.717 276.146,447.866C276.001,448.015 275.928,448.226 275.928,448.5L275.928,450.046C275.928,450.441 275.872,450.749 275.76,450.969C275.649,451.19 275.473,451.348 275.235,451.445C275.172,451.47 275.104,451.494 275.031,451.515ZM281.138,451.515C281.066,451.494 280.999,451.47 280.937,451.445C280.701,451.348 280.525,451.19 280.411,450.969C280.296,450.749 280.239,450.441 280.239,450.046L280.239,448.5C280.239,448.226 280.166,448.015 280.021,447.866C279.876,447.717 279.659,447.642 279.372,447.642L279.371,447.642C279.279,447.642 279.203,447.567 279.203,447.474C279.203,447.29 279.203,446.982 279.203,446.687C279.203,446.478 279.286,446.278 279.434,446.131C279.582,445.983 279.782,445.9 279.991,445.9C279.991,445.9 279.991,445.9 279.991,445.9C280.83,445.9 281.461,446.104 281.884,446.511C282.307,446.918 282.519,447.495 282.519,448.244L282.519,450.095C282.519,450.278 282.567,450.415 282.663,450.506C282.759,450.596 282.884,450.641 283.039,450.641L283.438,450.641L283.438,452.391L283.039,452.391C282.884,452.391 282.759,452.434 282.663,452.52C282.567,452.607 282.519,452.746 282.519,452.937L282.519,454.788C282.519,455.534 282.307,456.111 281.884,456.52C281.461,456.928 280.83,457.132 279.991,457.132L279.991,457.132C279.782,457.132 279.582,457.049 279.434,456.901C279.286,456.754 279.203,456.554 279.203,456.345C279.203,456.05 279.203,455.742 279.203,455.558C279.203,455.465 279.279,455.39 279.371,455.39C279.372,455.39 279.372,455.39 279.372,455.39C279.659,455.39 279.876,455.315 280.021,455.166C280.166,455.017 280.239,454.806 280.239,454.532L280.239,452.986C280.239,452.591 280.296,452.283 280.411,452.063C280.525,451.842 280.701,451.683 280.937,451.585C280.999,451.56 281.066,451.536 281.138,451.515Z"
                      class="gray"/>
            </g>
        </g>
    </g>
    <defs>
        <linearGradient id="_Linear1" x1="0" y1="0" x2="1" y2="0" gradientUnits="userSpaceOnUse"
                        gradientTransform="matrix(26.272433,2.115904,-2.115904,26.272433,-1.195406,11.644514)"><stop offset="0" style="stop-color:rgb(255,45,32);stop-opacity:1"/>
            <stop offset="1" style="stop-color:rgb(179,10,0);stop-opacity:1"/></linearGradient>
    </defs>
</svg>
