<?xml version="1.0" encoding="UTF-8" standalone="no"?><!DOCTYPE svg PUBLIC "-//W3C//DTD SVG 1.1//EN" "http://www.w3.org/Graphics/SVG/1.1/DTD/svg11.dtd"><svg width="100%" height="100%" viewBox="0 0 6121 2246" version="1.1" xmlns="http://www.w3.org/2000/svg" xmlns:xlink="http://www.w3.org/1999/xlink" xml:space="preserve" xmlns:serif="http://www.serif.com/" style="fill-rule:evenodd;clip-rule:evenodd;stroke-linejoin:round;stroke-miterlimit:2;"><g><path id="Laravel-Translation-Manager" serif:id="Laravel Translation Manager" d="M2500.629,1568.472l0,-182.633l19.072,0l0,165.849l102.063,0l0,16.783l-121.135,0Zm235.002,-21.478c-3.527,5.914 -8.422,10.818 -14.685,14.713c-8.57,5.328 -19.393,7.992 -32.468,7.992c-10.261,0 -19.145,-1.664 -26.654,-4.992c-7.508,-3.328 -13.276,-8.01 -17.303,-14.046c-4.027,-6.036 -6.04,-12.942 -6.04,-20.717c0,-7.126 1.691,-13.625 5.072,-19.498c3.381,-5.873 8.936,-10.604 16.664,-14.193c7.728,-3.589 18.12,-5.383 31.176,-5.383l43.501,0l0,-8.218c0,-11.722 -3.276,-20.705 -9.827,-26.951c-6.551,-6.245 -16.227,-9.368 -29.029,-9.368c-8.886,0 -17.297,1.468 -25.234,4.405c-7.937,2.937 -14.708,6.844 -20.312,11.722l-8.22,-13.706c6.915,-5.892 15.241,-10.467 24.98,-13.726c9.739,-3.259 19.935,-4.888 30.589,-4.888c17.783,0 31.484,4.42 41.105,13.259c9.621,8.839 14.431,22.182 14.431,40.026l0,85.047l-17.746,0l-0,-21.478Zm-0.736,-42.297l-42.874,0c-13.306,0 -22.499,2.347 -27.581,7.04c-5.082,4.694 -7.622,10.529 -7.622,17.505c0,7.92 3.042,14.215 9.127,18.885c6.085,4.67 14.531,7.006 25.34,7.006c10.556,0 19.576,-2.385 27.058,-7.154c7.483,-4.77 13,-11.648 16.552,-20.636l0,-22.646Zm86.421,-46.799c3.924,-8.239 9.735,-14.723 17.433,-19.452c9.013,-5.537 20.227,-8.306 33.641,-8.306l0,18.08c-0.765,-0.098 -1.498,-0.171 -2.2,-0.22c-0.702,-0.049 -1.424,-0.073 -2.164,-0.073c-14.271,0 -25.501,4.386 -33.69,13.157c-8.189,8.772 -12.283,21.229 -12.283,37.372l0,70.016l-18.478,0l0,-137.105l17.742,0l-0,26.531Zm161.611,89.096c-3.527,5.914 -8.422,10.818 -14.685,14.713c-8.57,5.328 -19.393,7.992 -32.468,7.992c-10.261,0 -19.145,-1.664 -26.654,-4.992c-7.508,-3.328 -13.276,-8.01 -17.303,-14.046c-4.027,-6.036 -6.04,-12.942 -6.04,-20.717c0,-7.126 1.691,-13.625 5.072,-19.498c3.381,-5.873 8.936,-10.604 16.664,-14.193c7.728,-3.589 18.12,-5.383 31.176,-5.383l43.501,0l0,-8.218c0,-11.722 -3.276,-20.705 -9.827,-26.951c-6.551,-6.245 -16.227,-9.368 -29.029,-9.368c-8.886,0 -17.297,1.468 -25.234,4.405c-7.937,2.937 -14.708,6.844 -20.312,11.722l-8.22,-13.706c6.915,-5.892 15.241,-10.467 24.98,-13.726c9.739,-3.259 19.935,-4.888 30.589,-4.888c17.783,0 31.484,4.42 41.105,13.259c9.621,8.839 14.431,22.182 14.431,40.026l0,85.047l-17.746,0l0,-21.478Zm-0.736,-42.297l-42.874,0c-13.306,0 -22.499,2.347 -27.581,7.04c-5.082,4.694 -7.622,10.529 -7.622,17.505c0,7.92 3.042,14.215 9.127,18.885c6.085,4.67 14.531,7.006 25.34,7.006c10.556,0 19.576,-2.385 27.058,-7.154c7.483,-4.77 13,-11.648 16.552,-20.636l0,-22.646Zm110.992,43.367l51.754,-116.697l18.376,0l-60.921,137.105l-18.926,0l-60.771,-137.105l19.41,0l51.078,116.697Zm96.695,-42.584c0.605,8.366 2.846,15.899 6.722,22.599c4.593,7.94 10.985,14.138 19.176,18.593c8.19,4.456 17.585,6.684 28.185,6.684c8.433,0 16.242,-1.493 23.426,-4.478c7.184,-2.985 13.319,-7.514 18.403,-13.585l10.433,12.083c-6.098,7.305 -13.683,12.852 -22.753,16.641c-9.07,3.789 -19.054,5.683 -29.952,5.683c-14.195,0 -26.694,-2.987 -37.497,-8.962c-10.803,-5.975 -19.235,-14.236 -25.295,-24.782c-6.06,-10.546 -9.091,-22.577 -9.091,-36.092c0,-13.589 2.886,-25.619 8.659,-36.09c5.773,-10.471 13.733,-18.695 23.88,-24.67c10.147,-5.975 21.613,-8.962 34.398,-8.962c12.782,0 24.173,2.925 34.172,8.775c9.999,5.85 17.855,14.016 23.568,24.498c5.713,10.482 8.57,22.642 8.57,36.478c0,0.764 -0.025,1.652 -0.075,2.664c-0.05,1.012 -0.124,1.987 -0.222,2.925l-114.707,0Zm0.089,-13.828l97.246,-0c-0.593,-7.638 -2.606,-14.577 -6.039,-20.817c-4.245,-7.717 -10.023,-13.779 -17.335,-18.186c-7.312,-4.407 -15.735,-6.61 -25.269,-6.61c-9.458,0 -17.886,2.203 -25.285,6.61c-7.399,4.407 -13.178,10.493 -17.337,18.259c-3.315,6.189 -5.309,13.103 -5.982,20.744Zm152.712,76.82l0,-193.591l18.478,0l0,193.591l-18.478,0Zm177.793,0l0,-165.849l-64.143,0l0,-16.783l147.353,0l0,16.783l-64.138,0l0,165.849l-19.072,0Zm124.157,-110.574c3.924,-8.239 9.735,-14.723 17.433,-19.452c9.013,-5.537 20.227,-8.306 33.641,-8.306l0,18.08c-0.765,-0.098 -1.498,-0.171 -2.2,-0.22c-0.702,-0.049 -1.424,-0.073 -2.164,-0.073c-14.271,0 -25.501,4.386 -33.69,13.157c-8.189,8.772 -12.283,21.229 -12.283,37.372l0,70.016l-18.478,0l0,-137.105l17.742,0l0,26.531Zm161.611,89.096c-3.527,5.914 -8.422,10.818 -14.685,14.713c-8.57,5.328 -19.393,7.992 -32.468,7.992c-10.261,0 -19.145,-1.664 -26.654,-4.992c-7.508,-3.328 -13.276,-8.01 -17.303,-14.046c-4.027,-6.036 -6.04,-12.942 -6.04,-20.717c0,-7.126 1.691,-13.625 5.072,-19.498c3.381,-5.873 8.936,-10.604 16.664,-14.193c7.728,-3.589 18.12,-5.383 31.176,-5.383l43.501,0l0,-8.218c0,-11.722 -3.276,-20.705 -9.827,-26.951c-6.551,-6.245 -16.227,-9.368 -29.029,-9.368c-8.886,0 -17.297,1.468 -25.234,4.405c-7.937,2.937 -14.708,6.844 -20.312,11.722l-8.22,-13.706c6.915,-5.892 15.241,-10.467 24.98,-13.726c9.739,-3.259 19.935,-4.888 30.589,-4.888c17.783,0 31.484,4.42 41.105,13.259c9.621,8.839 14.431,22.182 14.431,40.026l0,85.047l-17.746,0l0,-21.478Zm-0.736,-42.297l-42.874,0c-13.306,0 -22.499,2.347 -27.581,7.04c-5.082,4.694 -7.622,10.529 -7.622,17.505c0,7.92 3.042,14.215 9.127,18.885c6.085,4.67 14.531,7.006 25.34,7.006c10.556,0 19.576,-2.385 27.058,-7.154c7.483,-4.77 13,-11.648 16.552,-20.636l0,-22.646Zm86.421,-48.231c4.326,-7.38 10.295,-13.336 17.907,-17.867c9.473,-5.639 20.809,-8.459 34.009,-8.459c11.204,0 20.994,2.155 29.371,6.466c8.376,4.31 14.949,10.813 19.719,19.507c4.77,8.694 7.155,19.622 7.155,32.784l0,79.576l-18.482,0l0,-77.656c0,-14.529 -3.588,-25.501 -10.764,-32.917c-7.176,-7.415 -17.268,-11.123 -30.276,-11.123c-9.737,0 -18.218,1.973 -25.443,5.919c-7.225,3.946 -12.774,9.608 -16.648,16.985c-3.873,7.377 -5.81,16.313 -5.81,26.806l0,71.985l-18.478,0l0,-137.105l17.742,0l0,25.099Zm195.088,113.233c-11.326,0 -22.032,-1.616 -32.118,-4.849c-10.086,-3.233 -17.941,-7.249 -23.564,-12.048l8.139,-14.672c5.548,4.302 12.66,7.965 21.337,10.989c8.677,3.023 17.806,4.535 27.386,4.535c13.016,0 22.404,-2.044 28.167,-6.131c5.762,-4.087 8.643,-9.533 8.643,-16.335c0,-5.055 -1.6,-9.009 -4.8,-11.861c-3.2,-2.852 -7.434,-5.032 -12.704,-6.539c-5.27,-1.507 -11.079,-2.771 -17.427,-3.791c-6.348,-1.021 -12.696,-2.252 -19.045,-3.693c-6.349,-1.442 -12.159,-3.497 -17.429,-6.166c-5.27,-2.669 -9.504,-6.345 -12.702,-11.027c-3.198,-4.683 -4.797,-10.912 -4.797,-18.687c0,-7.566 2.116,-14.303 6.347,-20.21c4.231,-5.907 10.377,-10.563 18.437,-13.967c8.06,-3.404 17.889,-5.106 29.486,-5.106c8.823,0 17.682,1.163 26.576,3.488c8.894,2.325 16.152,5.477 21.773,9.456l-8.139,14.668c-5.968,-4.15 -12.424,-7.115 -19.369,-8.895c-6.944,-1.78 -13.94,-2.67 -20.988,-2.67c-12.194,0 -21.189,2.131 -26.985,6.392c-5.796,4.261 -8.694,9.63 -8.694,16.107c0,5.33 1.599,9.483 4.797,12.46c3.198,2.977 7.432,5.287 12.702,6.93c5.27,1.643 11.08,2.975 17.429,3.995c6.349,1.021 12.679,2.251 18.991,3.691c6.311,1.44 12.102,3.452 17.372,6.035c5.27,2.583 9.504,6.154 12.702,10.711c3.198,4.558 4.797,10.637 4.797,18.239c0,7.868 -2.215,14.725 -6.646,20.571c-4.431,5.846 -10.825,10.371 -19.184,13.575c-8.358,3.204 -18.522,4.806 -30.491,4.806Zm90.434,-1.227l0,-193.591l18.478,0l0,193.591l-18.478,0Zm155.699,-21.478c-3.527,5.914 -8.422,10.818 -14.685,14.713c-8.57,5.328 -19.393,7.992 -32.468,7.992c-10.261,0 -19.145,-1.664 -26.654,-4.992c-7.508,-3.328 -13.276,-8.01 -17.303,-14.046c-4.027,-6.036 -6.04,-12.942 -6.04,-20.717c0,-7.126 1.691,-13.625 5.072,-19.498c3.381,-5.873 8.936,-10.604 16.664,-14.193c7.728,-3.589 18.12,-5.383 31.176,-5.383l43.501,0l0,-8.218c0,-11.722 -3.276,-20.705 -9.827,-26.951c-6.551,-6.245 -16.227,-9.368 -29.029,-9.368c-8.886,0 -17.297,1.468 -25.234,4.405c-7.937,2.937 -14.708,6.844 -20.312,11.722l-8.22,-13.706c6.915,-5.892 15.241,-10.467 24.98,-13.726c9.739,-3.259 19.935,-4.888 30.589,-4.888c17.783,0 31.484,4.42 41.105,13.259c9.621,8.839 14.431,22.182 14.431,40.026l0,85.047l-17.746,0l0,-21.478Zm-0.736,-42.297l-42.874,0c-13.306,0 -22.499,2.347 -27.581,7.04c-5.082,4.694 -7.622,10.529 -7.622,17.505c0,7.92 3.042,14.215 9.127,18.885c6.085,4.67 14.531,7.006 25.34,7.006c10.556,0 19.576,-2.385 27.058,-7.154c7.483,-4.77 13,-11.648 16.552,-20.636l0,-22.646Zm71.791,-57.876l-24.408,0l0,-15.454l24.408,0l0,-30.073l18.482,0l0,30.073l41.573,0l0,15.454l-41.573,0l0,81.932c0,8.088 2.024,14.309 6.071,18.663c4.047,4.354 9.894,6.531 17.541,6.531c8.14,0 14.914,-2.339 20.321,-7.016l6.447,13.261c-3.517,3.207 -7.858,5.593 -13.024,7.159c-5.166,1.565 -10.423,2.348 -15.773,2.348c-12.847,0 -22.737,-3.488 -29.667,-10.463c-6.931,-6.975 -10.396,-16.799 -10.396,-29.472l0,-82.943Zm102.426,121.651l0,-136.975l18.482,0l0,136.975l-18.482,0Zm9.371,-167.239c-3.818,0 -7.028,-1.305 -9.632,-3.914c-2.603,-2.609 -3.905,-5.74 -3.905,-9.393c0,-3.653 1.302,-6.74 3.905,-9.262c2.603,-2.522 5.814,-3.783 9.632,-3.783c3.818,0 7.028,1.218 9.632,3.653c2.603,2.435 3.905,5.479 3.905,9.132c0,3.827 -1.258,7.044 -3.775,9.653c-2.516,2.609 -5.77,3.914 -9.762,3.914Zm116.559,168.467c-13.338,0 -25.24,-2.987 -35.705,-8.962c-10.465,-5.975 -18.734,-14.245 -24.805,-24.81c-6.071,-10.565 -9.107,-22.595 -9.107,-36.088c0,-13.673 3.045,-25.722 9.135,-36.147c6.09,-10.425 14.348,-18.623 24.774,-24.594c10.426,-5.971 22.329,-8.956 35.708,-8.956c13.379,0 25.328,2.982 35.846,8.946c10.518,5.964 18.776,14.153 24.774,24.568c5.998,10.414 8.997,22.476 8.997,36.184c0,13.532 -2.992,25.571 -8.977,36.117c-5.984,10.546 -14.254,18.807 -24.809,24.782c-10.555,5.975 -22.499,8.962 -35.832,8.962Zm0,-16.343c9.781,0 18.514,-2.228 26.2,-6.684c7.686,-4.456 13.739,-10.728 18.159,-18.816c4.42,-8.088 6.63,-17.425 6.63,-28.01c0,-10.738 -2.21,-20.107 -6.63,-28.108c-4.42,-8.001 -10.473,-14.21 -18.159,-18.628c-7.686,-4.418 -16.395,-6.627 -26.127,-6.627c-9.732,0 -18.422,2.209 -26.07,6.627c-7.648,4.418 -13.725,10.627 -18.232,18.628c-4.507,8.001 -6.76,17.37 -6.76,28.108c0,10.586 2.253,19.922 6.76,28.01c4.507,8.088 10.581,14.36 18.222,18.816c7.641,4.456 16.31,6.684 26.007,6.684Zm125.157,-96.89c4.326,-7.38 10.295,-13.336 17.907,-17.867c9.473,-5.639 20.809,-8.459 34.009,-8.459c11.204,0 20.994,2.155 29.371,6.466c8.376,4.31 14.949,10.813 19.719,19.507c4.77,8.694 7.155,19.622 7.155,32.784l0,79.576l-18.482,0l0,-77.656c0,-14.529 -3.588,-25.501 -10.764,-32.917c-7.176,-7.415 -17.268,-11.123 -30.276,-11.123c-9.737,0 -18.218,1.973 -25.443,5.919c-7.225,3.946 -12.774,9.608 -16.648,16.985c-3.873,7.377 -5.81,16.313 -5.81,26.806l0,71.985l-18.478,0l0,-137.105l17.742,0l0,25.099Zm249.11,-32.881l0,144.887l-18.482,0l0,-182.633l15.785,0l79.078,135.321l78.41,-135.321l15.781,0l0.146,182.633l-18.478,0l-0.143,-145.784l-71.541,122.47l-9.026,0l-71.533,-121.573Zm311.89,123.409c-3.527,5.914 -8.422,10.818 -14.685,14.713c-8.57,5.328 -19.393,7.992 -32.468,7.992c-10.261,0 -19.145,-1.664 -26.654,-4.992c-7.508,-3.328 -13.276,-8.01 -17.303,-14.046c-4.027,-6.036 -6.04,-12.942 -6.04,-20.717c0,-7.126 1.691,-13.625 5.072,-19.498c3.381,-5.873 8.936,-10.604 16.664,-14.193c7.728,-3.589 18.12,-5.383 31.176,-5.383l43.501,0l0,-8.218c0,-11.722 -3.276,-20.705 -9.827,-26.951c-6.551,-6.245 -16.227,-9.368 -29.029,-9.368c-8.886,0 -17.297,1.468 -25.234,4.405c-7.937,2.937 -14.708,6.844 -20.312,11.722l-8.22,-13.706c6.915,-5.892 15.241,-10.467 24.98,-13.726c9.739,-3.259 19.935,-4.888 30.589,-4.888c17.783,0 31.484,4.42 41.105,13.259c9.621,8.839 14.431,22.182 14.431,40.026l0,85.047l-17.746,0l0,-21.478Zm-0.736,-42.297l-42.874,0c-13.306,0 -22.499,2.347 -27.581,7.04c-5.082,4.694 -7.622,10.529 -7.622,17.505c0,7.92 3.042,14.215 9.127,18.885c6.085,4.67 14.531,7.006 25.34,7.006c10.556,0 19.576,-2.385 27.058,-7.154c7.483,-4.77 13,-11.648 16.552,-20.636l0,-22.646Zm86.421,-48.231c4.326,-7.38 10.295,-13.336 17.907,-17.867c9.473,-5.639 20.809,-8.459 34.009,-8.459c11.204,0 20.994,2.155 29.371,6.466c8.376,4.31 14.949,10.813 19.719,19.507c4.77,8.694 7.155,19.622 7.155,32.784l0,79.576l-18.482,0l0,-77.656c0,-14.529 -3.588,-25.501 -10.764,-32.917c-7.176,-7.415 -17.268,-11.123 -30.276,-11.123c-9.737,0 -18.218,1.973 -25.443,5.919c-7.225,3.946 -12.774,9.608 -16.648,16.985c-3.873,7.377 -5.81,16.313 -5.81,26.806l0,71.985l-18.478,0l0,-137.105l17.742,0l0,25.099Zm243.965,90.528c-3.527,5.914 -8.422,10.818 -14.685,14.713c-8.57,5.328 -19.393,7.992 -32.468,7.992c-10.261,0 -19.145,-1.664 -26.654,-4.992c-7.508,-3.328 -13.276,-8.01 -17.303,-14.046c-4.027,-6.036 -6.04,-12.942 -6.04,-20.717c0,-7.126 1.691,-13.625 5.072,-19.498c3.381,-5.873 8.936,-10.604 16.664,-14.193c7.728,-3.589 18.12,-5.383 31.176,-5.383l43.501,0l0,-8.218c0,-11.722 -3.276,-20.705 -9.827,-26.951c-6.551,-6.245 -16.227,-9.368 -29.029,-9.368c-8.886,0 -17.297,1.468 -25.234,4.405c-7.937,2.937 -14.708,6.844 -20.312,11.722l-8.22,-13.706c6.915,-5.892 15.241,-10.467 24.98,-13.726c9.739,-3.259 19.935,-4.888 30.589,-4.888c17.783,0 31.484,4.42 41.105,13.259c9.621,8.839 14.431,22.182 14.431,40.026l0,85.047l-17.746,0l0,-21.478Zm-0.736,-42.297l-42.874,0c-13.306,0 -22.499,2.347 -27.581,7.04c-5.082,4.694 -7.622,10.529 -7.622,17.505c0,7.92 3.042,14.215 9.127,18.885c6.085,4.67 14.531,7.006 25.34,7.006c10.556,0 19.576,-2.385 27.058,-7.154c7.483,-4.77 13,-11.648 16.552,-20.636l0,-22.646Zm177.03,32.098c-5.452,7.967 -12.357,14.171 -20.715,18.613c-9.707,5.16 -20.6,7.739 -32.677,7.739c-13.086,0 -24.815,-2.826 -35.187,-8.479c-10.372,-5.653 -18.563,-13.485 -24.573,-23.498c-6.01,-10.012 -9.015,-21.564 -9.015,-34.655c0,-13.167 3.005,-24.739 9.015,-34.714c6.01,-9.975 14.201,-17.746 24.573,-23.312c10.372,-5.566 22.101,-8.349 35.187,-8.349c12.077,0 22.97,2.537 32.677,7.611c8.739,4.568 15.889,11.081 21.451,19.54l0,-25.924l17.742,0l0,120.521c0,23.517 -5.777,40.8 -17.331,51.851c-11.554,11.05 -28.629,16.576 -51.225,16.576c-12.443,0 -24.401,-1.828 -35.872,-5.483c-11.471,-3.655 -20.811,-8.864 -28.018,-15.626l9.4,-14.15c6.548,5.898 14.546,10.524 23.991,13.881c9.446,3.356 19.416,5.035 29.909,5.035c17.37,0 30.158,-4.067 38.361,-12.201c8.204,-8.134 12.306,-20.724 12.306,-37.77l0,-17.205Zm-51.623,10.014c10.13,0 19.088,-2.122 26.871,-6.366c7.784,-4.244 13.904,-10.162 18.36,-17.754c4.456,-7.592 6.685,-16.317 6.685,-26.174c0,-9.933 -2.228,-18.658 -6.685,-26.174c-4.456,-7.516 -10.577,-13.371 -18.36,-17.566c-7.784,-4.195 -16.741,-6.292 -26.871,-6.292c-9.954,0 -18.867,2.097 -26.737,6.292c-7.87,4.195 -14.034,10.05 -18.492,17.566c-4.458,7.516 -6.687,16.241 -6.687,26.174c0,9.857 2.229,18.582 6.687,26.174c4.458,7.592 10.622,13.51 18.492,17.754c7.87,4.244 16.783,6.366 26.737,6.366Zm126.143,-41.329c0.605,8.366 2.846,15.899 6.722,22.599c4.593,7.94 10.985,14.138 19.176,18.593c8.19,4.456 17.585,6.684 28.185,6.684c8.433,0 16.242,-1.493 23.426,-4.478c7.184,-2.985 13.319,-7.514 18.403,-13.585l10.433,12.083c-6.098,7.305 -13.683,12.852 -22.753,16.641c-9.07,3.789 -19.054,5.683 -29.952,5.683c-14.195,0 -26.694,-2.987 -37.497,-8.962c-10.803,-5.975 -19.235,-14.236 -25.295,-24.782c-6.06,-10.546 -9.091,-22.577 -9.091,-36.092c0,-13.589 2.886,-25.619 8.659,-36.09c5.773,-10.471 13.733,-18.695 23.88,-24.67c10.147,-5.975 21.613,-8.962 34.398,-8.962c12.782,0 24.173,2.925 34.172,8.775c9.999,5.85 17.855,14.016 23.568,24.498c5.713,10.482 8.57,22.642 8.57,36.478c0,0.764 -0.025,1.652 -0.075,2.664c-0.05,1.012 -0.124,1.987 -0.222,2.925l-114.707,0Zm0.089,-13.828l97.246,-0c-0.593,-7.638 -2.606,-14.577 -6.039,-20.817c-4.245,-7.717 -10.023,-13.779 -17.335,-18.186c-7.312,-4.407 -15.735,-6.61 -25.269,-6.61c-9.458,0 -17.886,2.203 -25.285,6.61c-7.399,4.407 -13.178,10.493 -17.337,18.259c-3.315,6.189 -5.309,13.103 -5.982,20.744Zm170.454,-33.754c3.924,-8.239 9.735,-14.723 17.433,-19.452c9.013,-5.537 20.227,-8.306 33.641,-8.306l0,18.08c-0.765,-0.098 -1.498,-0.171 -2.2,-0.22c-0.702,-0.049 -1.424,-0.073 -2.164,-0.073c-14.271,0 -25.501,4.386 -33.69,13.157c-8.189,8.772 -12.283,21.229 -12.283,37.372l0,70.016l-18.478,0l0,-137.105l17.742,0l0,26.531Z" style="fill:#53565a;"/><path id="LINGUA" d="M2500.629,1299.916l0,-622.977l209.556,0l0,460.113l280.592,0l0,162.864l-490.148,0Zm547.864,0l0,-622.977l209.556,0l0,622.977l-209.556,0Zm515.01,-283.28l0,283.28l-204.228,0l0,-622.977l172.262,0l236.194,283.28l0,-283.28l204.228,0l0,622.977l-172.262,0l-236.194,-283.28Zm1102.832,218.312c-37.886,25.512 -81.099,45.092 -129.64,58.738c-48.541,13.646 -95.602,20.469 -141.184,20.469c-50.317,0 -96.638,-7.861 -138.964,-23.584c-42.326,-15.723 -79.027,-38.12 -110.106,-67.193c-31.078,-29.072 -55.201,-63.484 -72.368,-103.236c-17.167,-39.752 -25.751,-83.657 -25.751,-131.715c0,-48.058 8.584,-91.963 25.751,-131.715c17.167,-39.752 41.438,-74.164 72.812,-103.236c31.374,-29.072 68.52,-51.47 111.438,-67.193c42.918,-15.723 90.127,-23.584 141.628,-23.584c61.564,0 116.469,10.383 164.714,31.149c48.245,20.766 88.055,50.431 119.429,88.997l-134.08,118.366c-19.535,-22.546 -40.698,-39.604 -63.488,-51.173c-22.791,-11.57 -48.097,-17.354 -75.92,-17.354c-23.087,0 -43.953,3.56 -62.6,10.68c-18.647,7.12 -34.482,17.503 -47.505,31.149c-13.023,13.646 -23.087,29.962 -30.19,48.948c-7.104,18.986 -10.655,40.642 -10.655,64.968c0,23.139 3.552,44.35 10.655,63.633c7.104,19.283 17.167,35.747 30.19,49.393c13.023,13.646 28.562,24.177 46.617,31.594c18.055,7.416 38.33,11.125 60.824,11.125c23.679,0 46.765,-4.005 69.26,-12.015c2.352,-0.837 4.72,-1.738 7.104,-2.702l0,-157.937l182.029,0l0,263.43Zm387.146,79.207c-95.306,0 -169.598,-25.809 -222.875,-77.427c-53.277,-51.618 -79.915,-124.002 -79.915,-217.152l0,-342.637l209.556,0l0,336.408c0,47.465 8.584,81.135 25.751,101.011c17.167,19.876 40.254,29.814 69.26,29.814c29.598,0 52.833,-9.938 69.704,-29.814c16.871,-19.876 25.307,-53.546 25.307,-101.011l0,-336.408l206.004,0l0,342.637c0,93.15 -26.638,165.534 -79.915,217.152c-53.277,51.618 -127.569,77.427 -222.875,77.427Zm572.63,-122.815l-41.637,108.576l-213.108,0l271.712,-622.977l206.004,0l271.712,622.977l-216.659,0l-41.637,-108.576l-236.388,0Zm178.369,-151.294l-60.175,-156.918l-60.175,156.918l120.35,0Z" style="fill:#b30a00;"/></g><g><path d="M933.103,28.073c67.536,-37.431 149.591,-37.431 217.128,-0l817.712,453.204c71.208,39.466 115.39,114.467 115.39,195.881l0,890.799c-0,81.414 -44.182,156.415 -115.39,195.881l-817.712,453.204c-67.536,37.431 -149.591,37.431 -217.128,0l-817.712,-453.204c-71.208,-39.466 -115.39,-114.467 -115.39,-195.881l0,-890.799c0,-81.414 44.182,-156.415 115.39,-195.881l817.712,-453.204Zm-180.082,279.043l-561.636,311.278c-21.362,11.84 -34.617,34.34 -34.617,58.764l0,890.799c0,24.424 13.255,46.924 34.617,58.764l817.712,453.204c20.261,11.229 44.877,11.229 65.138,-0l102.62,-56.875l-245.193,-141.562c-10.418,-6.015 -18.721,-14.286 -24.648,-23.839c-3.574,-5.75 -6.373,-12.114 -8.215,-18.988c-1.842,-6.874 -2.6,-13.785 -2.38,-20.552c0.356,-11.237 3.411,-22.551 9.426,-32.969l176.328,-305.41c19.464,-33.712 62.636,-45.28 96.348,-25.816c33.712,19.464 45.28,62.636 25.816,96.348l-91.188,157.943l52.784,-14.144c126.004,-36.211 236.561,-111.451 316.324,-213.782l21.664,-0c20,0 38.211,-7.66 51.859,-20.206c13.648,12.546 31.859,20.206 51.859,20.206l36.405,0c2.686,0 5.341,-0.035 7.966,-0.104l-1.334,2.317c-98.434,169.021 -258.552,293.566 -446.599,347.378l-1.15,0.319l-53.27,14.274l157.945,91.189c4.26,2.46 8.166,5.298 11.701,8.447l572.643,-317.378c21.362,-11.84 34.617,-34.34 34.617,-58.765l-0,-890.798c-0,-24.424 -13.255,-46.924 -34.617,-58.764l-817.712,-453.204c-20.261,-11.229 -44.877,-11.229 -65.138,0l-116.786,64.727l256.009,147.807c10.418,6.015 18.72,14.285 24.647,23.839c3.574,5.75 6.373,12.114 8.215,18.988c1.842,6.874 2.6,13.785 2.38,20.551c-0.356,11.237 -3.411,22.552 -9.426,32.969l-176.328,305.41c-19.464,33.712 -62.636,45.28 -96.348,25.816c-33.712,-19.464 -45.28,-62.636 -25.816,-96.348l91.188,-157.943l-52.784,14.144c-144.637,41.566 -268.921,134.557 -349.64,260.919c-16.696,-37.539 -54.328,-63.741 -98.033,-63.741l-28.475,-0c99.019,-161.696 255.334,-280.714 438.004,-332.988l1.15,-0.319l53.27,-14.274l-157.945,-91.189c-7.618,-4.398 -14.105,-10.007 -19.359,-16.443Zm749.728,500.627c-45.831,-66.507 -106.556,-124.025 -180.632,-166.793c-33.712,-19.464 -45.28,-62.636 -25.816,-96.348c19.464,-33.712 62.636,-45.28 96.348,-25.816c121.645,70.232 214.488,172.287 274.154,289.834c-7.326,-0.58 -14.91,-0.878 -22.757,-0.878l-36.405,0c-20,0 -38.211,7.66 -51.859,20.206c-13.648,-12.546 -31.859,-20.206 -51.859,-20.206l-1.173,0Zm-917.859,654.559c44.86,61.922 102.953,115.531 172.976,155.958c33.712,19.464 45.28,62.636 25.816,96.348c-19.464,33.712 -62.636,45.28 -96.348,25.816c-117.128,-67.624 -207.554,-164.752 -267.371,-276.805c9.114,10.803 20.523,19.968 33.958,26.685c45.679,22.839 99.943,9.969 130.968,-28.002Z" style="fill:url(#_Linear1);"/><path d="M1154.81,1074.198c6.361,14.847 9.884,31.195 9.884,48.359c0,67.9 -55.126,123.027 -123.027,123.027c-67.9,0 -123.027,-55.126 -123.027,-123.027c0,-67.9 55.126,-123.027 123.027,-123.027c50.09,0 93.228,30 112.412,72.996c0.267,0.544 0.512,1.101 0.731,1.671Z" style="fill:#b30a00;"/><path d="M531.563,991.894l-248.686,0c-16.879,0 -30.583,-13.704 -30.583,-30.583c-0,-16.879 13.704,-30.583 30.583,-30.583l366.997,0c16.879,0 30.583,13.704 30.583,30.583c-0,16.879 -13.704,30.583 -30.583,30.583l-44.799,0l-52.087,78.131c-1.117,1.676 -2.397,3.237 -3.821,4.661l-54.832,54.832l85.415,85.415c11.935,11.935 11.935,31.316 0,43.251c-11.935,11.935 -31.316,11.935 -43.251,0l-85.415,-85.415l-85.415,85.415c-11.935,11.935 -31.316,11.935 -43.251,0c-11.935,-11.935 -11.935,-31.316 -0,-43.251l85.415,-85.415l-54.832,-54.832c-11.935,-11.935 -11.935,-31.316 0,-43.251c11.935,-11.935 31.316,-11.935 43.251,0l54.832,54.832l52.691,-52.691l27.788,-41.682Zm-95.77,-91.749c-16.879,-0 -30.583,-13.704 -30.583,-30.583c0,-16.879 13.704,-30.583 30.583,-30.583l30.583,0c16.879,-0 30.583,13.704 30.583,30.583c0,16.879 -13.704,30.583 -30.583,30.583l-30.583,0Z" style="fill:#53565a;"/><path d="M581.946,1302.644l-52.713,105.426c-7.549,15.097 -25.934,21.226 -41.032,13.677c-15.097,-7.549 -21.226,-25.934 -13.677,-41.032l152.916,-305.831c5.181,-10.361 15.77,-16.906 27.354,-16.906c11.584,0 22.174,6.545 27.354,16.906l152.916,305.831c7.549,15.097 1.42,33.483 -13.677,41.032c-15.097,7.549 -33.483,1.42 -41.032,-13.677l-52.713,-105.426l-145.696,0Zm115.113,-61.166l-42.265,-84.53l-42.265,84.53l84.53,0Z" style="fill:#53565a;"/><path d="M1414.773,1143.954c3.348,0.981 6.478,2.067 9.388,3.26c11.037,4.522 19.141,11.878 24.313,22.068c5.172,10.19 7.758,24.422 7.758,42.693l0,71.466c0,12.661 3.357,22.435 10.072,29.323c6.715,6.888 16.66,10.332 29.835,10.332l0,0c4.299,-0 7.783,3.485 7.783,7.783c0,14.245 0,44.571 0,61.218c-0,6.368 -5.163,11.531 -11.531,11.531c-10.664,-0 -24.874,-0 -24.874,-0c-38.653,0 -67.763,-9.436 -87.333,-28.309c-19.569,-18.873 -29.354,-45.552 -29.354,-80.039l0,-85.56c0,-8.853 -2.219,-15.278 -6.657,-19.277c-4.438,-3.999 -10.286,-5.998 -17.544,-5.998c0,0 -3.207,0 -6.949,0c-6.368,0 -11.531,-5.163 -11.531,-11.531c-0,-15.375 -0,-42.433 -0,-57.809c0,-6.368 5.163,-11.531 11.531,-11.531c3.742,0 6.949,0 6.949,0c7.258,0 13.106,-2.092 17.544,-6.275c4.438,-4.184 6.657,-10.517 6.657,-19l0,-85.56c0,-34.596 9.785,-61.303 29.354,-80.121c19.569,-18.818 48.68,-28.227 87.333,-28.227c0,0 14.21,0 24.874,0c6.368,0 11.531,5.163 11.531,11.531c0,16.647 0,46.974 0,61.218c-0,4.299 -3.485,7.783 -7.783,7.783c-0,-0 -0,-0 -0,-0c-13.175,0 -23.12,3.444 -29.835,10.332c-6.715,6.888 -10.072,16.662 -10.072,29.323l0,71.466c0,18.272 -2.586,32.503 -7.758,42.693c-5.172,10.19 -13.276,17.518 -24.313,21.982c-2.911,1.177 -6.04,2.255 -9.388,3.232Zm282.279,-0c-3.316,-0.978 -6.413,-2.055 -9.291,-3.232c-10.913,-4.464 -19.017,-11.791 -24.313,-21.982c-5.296,-10.19 -7.944,-24.422 -7.944,-42.693l0,-71.466c0,-12.661 -3.357,-22.435 -10.072,-29.323c-6.715,-6.888 -16.717,-10.332 -30.008,-10.332l-0,0c-4.299,0 -7.783,-3.485 -7.783,-7.783c-0,-14.245 -0,-44.571 -0,-61.218c0,-6.368 5.163,-11.531 11.531,-11.531c10.664,0 24.874,0 24.874,0c38.768,0 67.937,9.409 87.506,28.227c19.569,18.818 29.354,45.525 29.354,80.121l0,85.56c0,8.483 2.219,14.816 6.657,19c4.438,4.184 10.228,6.275 17.37,6.275l6.94,0c6.368,0 11.531,5.163 11.531,11.531c0,15.375 0,42.433 0,57.809c-0,6.368 -5.163,11.531 -11.531,11.531c-3.738,-0 -6.94,-0 -6.94,-0c-7.142,0 -12.932,1.999 -17.37,5.998c-4.438,3.999 -6.657,10.424 -6.657,19.277l0,85.56c0,34.486 -9.785,61.166 -29.354,80.039c-19.569,18.873 -48.738,28.309 -87.506,28.309c0,-0 -14.21,-0 -24.874,-0c-6.368,-0 -11.531,-5.163 -11.531,-11.531c-0,-16.647 -0,-46.974 -0,-61.218c0,-4.299 3.485,-7.783 7.783,-7.783c0,0 0,0 0,0c13.291,0 23.293,-3.444 30.008,-10.332c6.715,-6.888 10.072,-16.662 10.072,-29.323l0,-71.466c0,-18.272 2.648,-32.503 7.944,-42.693c5.296,-10.19 13.4,-17.547 24.313,-22.068c2.878,-1.192 5.975,-2.279 9.291,-3.26Z" style="fill:#53565a;"/></g><defs><linearGradient id="_Linear1" x1="0" y1="0" x2="1" y2="0" gradientUnits="userSpaceOnUse" gradientTransform="matrix(-1055.758122,1530.151764,-1530.151764,-1055.758122,1527.050255,336.141577)"><stop offset="0" style="stop-color:#ff2d20;stop-opacity:1"/><stop offset="1" style="stop-color:#b30a00;stop-opacity:1"/></linearGradient></defs></svg>