<svg width="100%" height="100%" viewBox="0 0 6121 2246" version="1.1" xmlns="http://www.w3.org/2000/svg"
     xmlns:xlink="http://www.w3.org/1999/xlink" xml:space="preserve"
     style="fill-rule:evenodd;clip-rule:evenodd;stroke-linejoin:round;stroke-miterlimit:2;">
    <g transform="matrix(4.166667,0,0,4.166667,-991.550501,-373.252778)">
        <g transform="matrix(1.73768,0,0,1.74163,-427.279311,-258.073271)">
            <g id="Laravel-Translation-Manager" transform="matrix(1.198436,0,0,1.198436,165.072615,-458.776265)">
                <path d="M469.897,729.725L469.897,708.725L472.095,708.725L472.095,727.795L483.857,727.795L483.857,729.725L469.897,729.725ZM496.98,727.256C496.574,727.936 496.009,728.5 495.288,728.947C494.3,729.56 493.053,729.866 491.546,729.866C490.363,729.866 489.339,729.675 488.474,729.292C487.609,728.91 486.944,728.371 486.48,727.677C486.016,726.983 485.784,726.189 485.784,725.295C485.784,724.476 485.979,723.728 486.368,723.053C486.758,722.378 487.398,721.834 488.289,721.421C489.18,721.008 490.377,720.802 491.882,720.802L496.895,720.802L496.895,719.857C496.895,718.509 496.518,717.476 495.763,716.758C495.008,716.04 493.893,715.681 492.417,715.681C491.393,715.681 490.424,715.85 489.509,716.187C488.594,716.525 487.814,716.974 487.168,717.535L486.221,715.959C487.018,715.282 487.977,714.756 489.1,714.381C490.222,714.006 491.397,713.819 492.625,713.819C494.674,713.819 496.253,714.327 497.362,715.344C498.471,716.36 499.025,717.894 499.025,719.946L499.025,729.725L496.98,729.725L496.98,727.256ZM496.895,722.392L491.954,722.392C490.421,722.392 489.361,722.662 488.775,723.202C488.19,723.741 487.897,724.412 487.897,725.214C487.897,726.125 488.248,726.849 488.949,727.386C489.65,727.923 490.624,728.191 491.869,728.191C493.086,728.191 494.125,727.917 494.988,727.369C495.85,726.82 496.486,726.029 496.895,724.996L496.895,722.392ZM506.855,717.011C507.307,716.064 507.977,715.318 508.864,714.774C509.903,714.137 511.195,713.819 512.741,713.819L512.741,715.898C512.653,715.887 512.568,715.878 512.487,715.873C512.406,715.867 512.323,715.864 512.238,715.864C510.593,715.864 509.299,716.369 508.355,717.377C507.412,718.386 506.94,719.818 506.94,721.674L506.94,729.725L504.81,729.725L504.81,713.96L506.855,713.96L506.855,717.011ZM525.48,727.256C525.074,727.936 524.509,728.5 523.788,728.947C522.8,729.56 521.553,729.866 520.046,729.866C518.863,729.866 517.839,729.675 516.974,729.292C516.109,728.91 515.444,728.371 514.98,727.677C514.516,726.983 514.284,726.189 514.284,725.295C514.284,724.476 514.479,723.728 514.868,723.053C515.258,722.378 515.898,721.834 516.789,721.421C517.68,721.008 518.877,720.802 520.382,720.802L525.395,720.802L525.395,719.857C525.395,718.509 525.018,717.476 524.263,716.758C523.508,716.04 522.392,715.681 520.917,715.681C519.893,715.681 518.924,715.85 518.009,716.187C517.094,716.525 516.314,716.974 515.668,717.535L514.721,715.959C515.518,715.282 516.477,714.756 517.6,714.381C518.722,714.006 519.897,713.819 521.125,713.819C523.174,713.819 524.753,714.327 525.862,715.344C526.971,716.36 527.525,717.894 527.525,719.946L527.525,729.725L525.48,729.725L525.48,727.256ZM525.395,722.392L520.454,722.392C518.921,722.392 517.861,722.662 517.275,723.202C516.69,723.741 516.397,724.412 516.397,725.214C516.397,726.125 516.748,726.849 517.449,727.386C518.15,727.923 519.124,728.191 520.369,728.191C521.586,728.191 522.625,727.917 523.488,727.369C524.35,726.82 524.986,726.029 525.395,724.996L525.395,722.392ZM538.187,727.379L544.151,713.96L546.269,713.96L539.248,729.725L537.067,729.725L530.063,713.96L532.3,713.96L538.187,727.379ZM549.33,722.482C549.4,723.444 549.658,724.31 550.105,725.081C550.634,725.994 551.371,726.706 552.315,727.219C553.259,727.731 554.342,727.987 555.563,727.987C556.535,727.987 557.435,727.815 558.263,727.472C559.091,727.129 559.798,726.608 560.384,725.91L561.586,727.299C560.883,728.139 560.009,728.777 558.964,729.213C557.919,729.648 556.768,729.866 555.512,729.866C553.876,729.866 552.436,729.523 551.191,728.836C549.946,728.149 548.974,727.199 548.275,725.986C547.577,724.774 547.228,723.39 547.228,721.836C547.228,720.274 547.56,718.89 548.226,717.686C548.891,716.482 549.808,715.537 550.978,714.85C552.147,714.163 553.469,713.819 554.942,713.819C556.415,713.819 557.728,714.155 558.88,714.828C560.033,715.501 560.938,716.44 561.596,717.645C562.255,718.85 562.584,720.248 562.584,721.839C562.584,721.927 562.581,722.029 562.575,722.146C562.57,722.262 562.561,722.374 562.55,722.482L549.33,722.482ZM549.341,720.892L560.548,720.892C560.479,720.014 560.248,719.216 559.852,718.498C559.363,717.611 558.697,716.914 557.854,716.407C557.011,715.901 556.041,715.647 554.942,715.647C553.852,715.647 552.881,715.901 552.028,716.407C551.175,716.914 550.509,717.614 550.03,718.507C549.648,719.218 549.418,720.014 549.341,720.892ZM566.94,729.725L566.94,707.465L569.07,707.465L569.07,729.725L566.94,729.725ZM587.43,729.725L587.43,710.655L580.038,710.655L580.038,708.725L597.02,708.725L597.02,710.655L589.628,710.655L589.628,729.725L587.43,729.725ZM601.739,717.011C602.191,716.064 602.861,715.318 603.748,714.774C604.787,714.137 606.079,713.819 607.625,713.819L607.625,715.898C607.537,715.887 607.452,715.878 607.371,715.873C607.29,715.867 607.207,715.864 607.122,715.864C605.477,715.864 604.183,716.369 603.239,717.377C602.295,718.386 601.824,719.818 601.824,721.674L601.824,729.725L599.694,729.725L599.694,713.96L601.739,713.96L601.739,717.011ZM620.364,727.256C619.957,727.936 619.393,728.5 618.671,728.947C617.684,729.56 616.436,729.866 614.93,729.866C613.747,729.866 612.723,729.675 611.858,729.292C610.993,728.91 610.328,728.371 609.864,727.677C609.4,726.983 609.168,726.189 609.168,725.295C609.168,724.476 609.363,723.728 609.752,723.053C610.142,722.378 610.782,721.834 611.673,721.421C612.563,721.008 613.761,720.802 615.266,720.802L620.279,720.802L620.279,719.857C620.279,718.509 619.901,717.476 619.146,716.758C618.391,716.04 617.276,715.681 615.801,715.681C614.777,715.681 613.808,715.85 612.893,716.187C611.978,716.525 611.198,716.974 610.552,717.535L609.605,715.959C610.401,715.282 611.361,714.756 612.483,714.381C613.606,714.006 614.781,713.819 616.009,713.819C618.058,713.819 619.637,714.327 620.746,715.344C621.855,716.36 622.409,717.894 622.409,719.946L622.409,729.725L620.364,729.725L620.364,727.256ZM620.279,722.392L615.338,722.392C613.804,722.392 612.745,722.662 612.159,723.202C611.574,723.741 611.281,724.412 611.281,725.214C611.281,726.125 611.631,726.849 612.333,727.386C613.034,727.923 614.007,728.191 615.253,728.191C616.47,728.191 617.509,727.917 618.371,727.369C619.234,726.82 619.87,726.029 620.279,724.996L620.279,722.392ZM630.239,716.846C630.737,715.998 631.425,715.313 632.302,714.792C633.394,714.143 634.701,713.819 636.222,713.819C637.513,713.819 638.641,714.067 639.607,714.563C640.572,715.058 641.329,715.806 641.879,716.806C642.429,717.805 642.704,719.062 642.704,720.575L642.704,729.725L640.574,729.725L640.574,720.796C640.574,719.125 640.16,717.864 639.333,717.011C638.506,716.158 637.343,715.732 635.844,715.732C634.722,715.732 633.744,715.959 632.912,716.413C632.079,716.866 631.44,717.517 630.993,718.366C630.547,719.214 630.323,720.241 630.323,721.448L630.323,729.725L628.194,729.725L628.194,713.96L630.239,713.96L630.239,716.846ZM652.722,729.866C651.416,729.866 650.183,729.68 649.02,729.309C647.858,728.937 646.953,728.475 646.305,727.923L647.243,726.236C647.882,726.731 648.702,727.152 649.702,727.5C650.702,727.847 651.754,728.021 652.858,728.021C654.358,728.021 655.44,727.786 656.104,727.316C656.768,726.846 657.1,726.22 657.1,725.438C657.1,724.857 656.916,724.402 656.547,724.074C656.178,723.746 655.69,723.496 655.083,723.322C654.475,723.149 653.806,723.004 653.074,722.886C652.343,722.769 651.611,722.627 650.879,722.462C650.148,722.296 649.478,722.06 648.871,721.753C648.263,721.446 647.775,721.023 647.407,720.485C647.038,719.946 646.854,719.23 646.854,718.336C646.854,717.466 647.098,716.691 647.585,716.012C648.073,715.333 648.781,714.798 649.71,714.406C650.639,714.015 651.772,713.819 653.108,713.819C654.125,713.819 655.146,713.953 656.171,714.22C657.196,714.487 658.033,714.85 658.681,715.307L657.743,716.994C657.055,716.517 656.311,716.176 655.51,715.971C654.71,715.766 653.904,715.664 653.092,715.664C651.686,715.664 650.65,715.909 649.982,716.399C649.314,716.889 648.98,717.506 648.98,718.251C648.98,718.864 649.164,719.342 649.533,719.684C649.901,720.026 650.389,720.292 650.997,720.481C651.604,720.67 652.273,720.823 653.005,720.94C653.737,721.057 654.466,721.199 655.194,721.365C655.921,721.53 656.588,721.762 657.196,722.059C657.803,722.356 658.291,722.766 658.66,723.29C659.028,723.814 659.213,724.513 659.213,725.387C659.213,726.292 658.957,727.081 658.447,727.753C657.936,728.425 657.199,728.945 656.236,729.314C655.272,729.682 654.101,729.866 652.722,729.866ZM663.144,729.725L663.144,707.465L665.273,707.465L665.273,729.725L663.144,729.725ZM681.088,727.256C680.681,727.936 680.117,728.5 679.395,728.947C678.408,729.56 677.16,729.866 675.653,729.866C674.471,729.866 673.447,729.675 672.582,729.292C671.716,728.91 671.052,728.371 670.588,727.677C670.124,726.983 669.892,726.189 669.892,725.295C669.892,724.476 670.086,723.728 670.476,723.053C670.866,722.378 671.506,721.834 672.397,721.421C673.287,721.008 674.485,720.802 675.99,720.802L681.003,720.802L681.003,719.857C681.003,718.509 680.625,717.476 679.87,716.758C679.115,716.04 678,715.681 676.525,715.681C675.501,715.681 674.531,715.85 673.617,716.187C672.702,716.525 671.922,716.974 671.276,717.535L670.328,715.959C671.125,715.282 672.085,714.756 673.207,714.381C674.33,714.006 675.505,713.819 676.733,713.819C678.782,713.819 680.361,714.327 681.47,715.344C682.578,716.36 683.133,717.894 683.133,719.946L683.133,729.725L681.088,729.725L681.088,727.256ZM681.003,722.392L676.062,722.392C674.528,722.392 673.469,722.662 672.883,723.202C672.298,723.741 672.005,724.412 672.005,725.214C672.005,726.125 672.355,726.849 673.057,727.386C673.758,727.923 674.731,728.191 675.977,728.191C677.193,728.191 678.233,727.917 679.095,727.369C679.958,726.82 680.593,726.029 681.003,724.996L681.003,722.392ZM689.276,715.737L686.463,715.737L686.463,713.96L689.276,713.96L689.276,710.502L691.406,710.502L691.406,713.96L696.198,713.96L696.198,715.737L691.406,715.737L691.406,725.158C691.406,726.088 691.64,726.803 692.106,727.304C692.572,727.805 693.246,728.055 694.128,728.055C695.066,728.055 695.846,727.786 696.469,727.248L697.212,728.773C696.807,729.142 696.307,729.416 695.711,729.596C695.116,729.776 694.51,729.866 693.894,729.866C692.413,729.866 691.273,729.465 690.475,728.663C689.676,727.861 689.276,726.732 689.276,725.274L689.276,715.737ZM701.081,729.725L701.081,713.975L703.211,713.975L703.211,729.725L701.081,729.725ZM702.161,710.495C701.721,710.495 701.351,710.345 701.051,710.045C700.751,709.745 700.601,709.385 700.601,708.965C700.601,708.545 700.751,708.19 701.051,707.9C701.351,707.61 701.721,707.465 702.161,707.465C702.601,707.465 702.971,707.605 703.271,707.885C703.571,708.165 703.721,708.515 703.721,708.935C703.721,709.375 703.576,709.745 703.286,710.045C702.996,710.345 702.621,710.495 702.161,710.495ZM715.594,729.866C714.056,729.866 712.685,729.523 711.479,728.836C710.273,728.149 709.32,727.198 708.62,725.983C707.92,724.768 707.57,723.385 707.57,721.833C707.57,720.261 707.921,718.876 708.623,717.677C709.325,716.478 710.277,715.536 711.478,714.849C712.68,714.162 714.052,713.819 715.594,713.819C717.135,713.819 718.512,714.162 719.725,714.848C720.937,715.534 721.889,716.475 722.58,717.673C723.271,718.87 723.617,720.257 723.617,721.833C723.617,723.389 723.272,724.774 722.582,725.986C721.892,727.199 720.939,728.149 719.723,728.836C718.507,729.523 717.13,729.866 715.594,729.866ZM715.594,727.987C716.721,727.987 717.727,727.731 718.613,727.219C719.499,726.706 720.196,725.985 720.706,725.055C721.215,724.125 721.47,723.051 721.47,721.834C721.47,720.6 721.215,719.522 720.706,718.602C720.196,717.682 719.499,716.968 718.613,716.46C717.727,715.952 716.724,715.698 715.602,715.698C714.48,715.698 713.479,715.952 712.598,716.46C711.716,716.968 711.016,717.682 710.496,718.602C709.977,719.522 709.717,720.6 709.717,721.834C709.717,723.051 709.977,724.125 710.496,725.055C711.016,725.985 711.716,726.706 712.596,727.219C713.477,727.731 714.476,727.987 715.594,727.987ZM730.017,716.846C730.516,715.998 731.204,715.313 732.081,714.792C733.173,714.143 734.479,713.819 736.001,713.819C737.292,713.819 738.42,714.067 739.385,714.563C740.351,715.058 741.108,715.806 741.658,716.806C742.208,717.805 742.482,719.062 742.482,720.575L742.482,729.725L740.352,729.725L740.352,720.796C740.352,719.125 739.939,717.864 739.112,717.011C738.285,716.158 737.122,715.732 735.623,715.732C734.501,715.732 733.523,715.959 732.691,716.413C731.858,716.866 731.218,717.517 730.772,718.366C730.326,719.214 730.102,720.241 730.102,721.448L730.102,729.725L727.973,729.725L727.973,713.96L730.017,713.96L730.017,716.846ZM758.726,713.065L758.726,729.725L756.596,729.725L756.596,708.725L758.416,708.725L767.529,724.285L776.566,708.725L778.384,708.725L778.401,729.725L776.272,729.725L776.255,712.962L768.01,727.044L766.97,727.044L758.726,713.065ZM794.671,727.256C794.264,727.936 793.7,728.5 792.978,728.947C791.99,729.56 790.743,729.866 789.236,729.866C788.054,729.866 787.03,729.675 786.165,729.292C785.299,728.91 784.635,728.371 784.171,727.677C783.706,726.983 783.474,726.189 783.474,725.295C783.474,724.476 783.669,723.728 784.059,723.053C784.449,722.378 785.089,721.834 785.979,721.421C786.87,721.008 788.068,720.802 789.572,720.802L794.586,720.802L794.586,719.857C794.586,718.509 794.208,717.476 793.453,716.758C792.698,716.04 791.583,715.681 790.108,715.681C789.084,715.681 788.114,715.85 787.2,716.187C786.285,716.525 785.505,716.974 784.859,717.535L783.911,715.959C784.708,715.282 785.668,714.756 786.79,714.381C787.912,714.006 789.088,713.819 790.315,713.819C792.365,713.819 793.944,714.327 795.053,715.344C796.161,716.36 796.716,717.894 796.716,719.946L796.716,729.725L794.671,729.725L794.671,727.256ZM794.586,722.392L789.645,722.392C788.111,722.392 787.052,722.662 786.466,723.202C785.88,723.741 785.588,724.412 785.588,725.214C785.588,726.125 785.938,726.849 786.639,727.386C787.341,727.923 788.314,728.191 789.56,728.191C790.776,728.191 791.816,727.917 792.678,727.369C793.54,726.82 794.176,726.029 794.586,724.996L794.586,722.392ZM804.545,716.846C805.044,715.998 805.732,715.313 806.609,714.792C807.701,714.143 809.007,713.819 810.529,713.819C811.82,713.819 812.948,714.067 813.913,714.563C814.879,715.058 815.636,715.806 816.186,716.806C816.736,717.805 817.01,719.062 817.01,720.575L817.01,729.725L814.88,729.725L814.88,720.796C814.88,719.125 814.467,717.864 813.64,717.011C812.813,716.158 811.65,715.732 810.151,715.732C809.029,715.732 808.051,715.959 807.218,716.413C806.386,716.866 805.746,717.517 805.3,718.366C804.853,719.214 804.63,720.241 804.63,721.448L804.63,729.725L802.501,729.725L802.501,713.96L804.545,713.96L804.545,716.846ZM832.661,727.256C832.255,727.936 831.691,728.5 830.969,728.947C829.981,729.56 828.734,729.866 827.227,729.866C826.045,729.866 825.021,729.675 824.156,729.292C823.29,728.91 822.626,728.371 822.161,727.677C821.697,726.983 821.465,726.189 821.465,725.295C821.465,724.476 821.66,723.728 822.05,723.053C822.44,722.378 823.08,721.834 823.97,721.421C824.861,721.008 826.059,720.802 827.563,720.802L832.577,720.802L832.577,719.857C832.577,718.509 832.199,717.476 831.444,716.758C830.689,716.04 829.574,715.681 828.099,715.681C827.075,715.681 826.105,715.85 825.191,716.187C824.276,716.525 823.496,716.974 822.85,717.535L821.902,715.959C822.699,715.282 823.659,714.756 824.781,714.381C825.903,714.006 827.079,713.819 828.306,713.819C830.356,713.819 831.935,714.327 833.044,715.344C834.152,716.36 834.707,717.894 834.707,719.946L834.707,729.725L832.661,729.725L832.661,727.256ZM832.577,722.392L827.636,722.392C826.102,722.392 825.043,722.662 824.457,723.202C823.871,723.741 823.579,724.412 823.579,725.214C823.579,726.125 823.929,726.849 824.63,727.386C825.332,727.923 826.305,728.191 827.551,728.191C828.767,728.191 829.807,727.917 830.669,727.369C831.531,726.82 832.167,726.029 832.577,724.996L832.577,722.392ZM852.979,726.083C852.35,726.999 851.555,727.712 850.591,728.223C849.473,728.816 848.217,729.113 846.825,729.113C845.317,729.113 843.966,728.788 842.77,728.138C841.575,727.488 840.631,726.587 839.938,725.436C839.246,724.285 838.899,722.957 838.899,721.451C838.899,719.937 839.246,718.607 839.938,717.46C840.631,716.313 841.575,715.419 842.77,714.779C843.966,714.139 845.317,713.819 846.825,713.819C848.217,713.819 849.473,714.111 850.591,714.694C851.598,715.219 852.423,715.968 853.064,716.941L853.064,713.96L855.108,713.96L855.108,727.818C855.108,730.522 854.442,732.51 853.111,733.78C851.779,735.051 849.812,735.686 847.207,735.686C845.773,735.686 844.395,735.476 843.073,735.056C841.751,734.636 840.675,734.037 839.844,733.259L840.928,731.632C841.682,732.31 842.604,732.842 843.693,733.228C844.781,733.614 845.93,733.807 847.139,733.807C849.141,733.807 850.615,733.339 851.561,732.404C852.506,731.469 852.979,730.021 852.979,728.061L852.979,726.083ZM847.029,727.234C848.197,727.234 849.229,726.99 850.126,726.502C851.023,726.014 851.728,725.334 852.242,724.461C852.756,723.588 853.012,722.585 853.012,721.451C853.012,720.309 852.756,719.306 852.242,718.442C851.728,717.577 851.023,716.904 850.126,716.422C849.229,715.939 848.197,715.698 847.029,715.698C845.882,715.698 844.855,715.939 843.948,716.422C843.041,716.904 842.331,717.577 841.817,718.442C841.303,719.306 841.046,720.309 841.046,721.451C841.046,722.585 841.303,723.588 841.817,724.461C842.331,725.334 843.041,726.014 843.948,726.502C844.855,726.99 845.882,727.234 847.029,727.234ZM861.567,722.482C861.637,723.444 861.895,724.31 862.342,725.081C862.871,725.994 863.608,726.706 864.551,727.219C865.495,727.731 866.578,727.987 867.8,727.987C868.772,727.987 869.671,727.815 870.499,727.472C871.327,727.129 872.034,726.608 872.62,725.91L873.823,727.299C873.12,728.139 872.246,728.777 871.2,729.213C870.155,729.648 869.004,729.866 867.749,729.866C866.113,729.866 864.672,729.523 863.427,728.836C862.182,728.149 861.21,727.199 860.512,725.986C859.814,724.774 859.464,723.39 859.464,721.836C859.464,720.274 859.797,718.89 860.462,717.686C861.128,716.482 862.045,715.537 863.214,714.85C864.384,714.163 865.705,713.819 867.179,713.819C868.652,713.819 869.964,714.155 871.117,714.828C872.269,715.501 873.174,716.44 873.833,717.645C874.491,718.85 874.821,720.248 874.821,721.839C874.821,721.927 874.818,722.029 874.812,722.146C874.806,722.262 874.798,722.374 874.786,722.482L861.567,722.482ZM861.577,720.892L872.784,720.892C872.716,720.014 872.484,719.216 872.088,718.498C871.599,717.611 870.933,716.914 870.091,716.407C869.248,715.901 868.277,715.647 867.179,715.647C866.089,715.647 865.117,715.901 864.265,716.407C863.412,716.914 862.746,717.614 862.267,718.507C861.885,719.218 861.655,720.014 861.577,720.892ZM881.221,717.011C881.674,716.064 882.343,715.318 883.23,714.774C884.269,714.137 885.561,713.819 887.107,713.819L887.107,715.898C887.019,715.887 886.935,715.878 886.854,715.873C886.773,715.867 886.69,715.864 886.604,715.864C884.96,715.864 883.666,716.369 882.722,717.377C881.778,718.386 881.306,719.818 881.306,721.674L881.306,729.725L879.177,729.725L879.177,713.96L881.221,713.96L881.221,717.011Z"
                      style="fill:rgb(83,86,90);"/>
            </g>
            <g id="LINGUA" transform="matrix(10.219933,0,0,10.219933,-2060.071333,-4269.321837)">
                <path d="M272.828,454.804L272.828,446.404L275.66,446.404L275.66,452.608L279.452,452.608L279.452,454.804L272.828,454.804ZM280.232,454.804L280.232,446.404L283.064,446.404L283.064,454.804L280.232,454.804ZM287.192,450.984L287.192,454.804L284.432,454.804L284.432,446.404L286.76,446.404L289.952,450.224L289.952,446.404L292.712,446.404L292.712,454.804L290.384,454.804L287.192,450.984ZM302.096,453.928C301.584,454.272 301,454.536 300.344,454.72C299.688,454.904 299.052,454.996 298.436,454.996C297.756,454.996 297.13,454.89 296.558,454.678C295.986,454.466 295.49,454.164 295.07,453.772C294.65,453.38 294.324,452.916 294.092,452.38C293.86,451.844 293.744,451.252 293.744,450.604C293.744,449.956 293.86,449.364 294.092,448.828C294.324,448.292 294.652,447.828 295.076,447.436C295.5,447.044 296.002,446.742 296.582,446.53C297.162,446.318 297.8,446.212 298.496,446.212C299.328,446.212 300.07,446.352 300.722,446.632C301.374,446.912 301.912,447.312 302.336,447.832L300.524,449.428C300.26,449.124 299.974,448.894 299.666,448.738C299.358,448.582 299.016,448.504 298.64,448.504C298.328,448.504 298.046,448.552 297.794,448.648C297.542,448.744 297.328,448.884 297.152,449.068C296.976,449.252 296.84,449.472 296.744,449.728C296.648,449.984 296.6,450.276 296.6,450.604C296.6,450.916 296.648,451.202 296.744,451.462C296.84,451.722 296.976,451.944 297.152,452.128C297.328,452.312 297.538,452.454 297.782,452.554C298.026,452.654 298.3,452.704 298.604,452.704C298.924,452.704 299.236,452.65 299.54,452.542C299.572,452.531 299.604,452.519 299.636,452.506L299.636,450.376L302.096,450.376L302.096,453.928ZM307.328,454.996C306.04,454.996 305.036,454.648 304.316,453.952C303.596,453.256 303.236,452.28 303.236,451.024L303.236,446.404L306.068,446.404L306.068,450.94C306.068,451.58 306.184,452.034 306.416,452.302C306.648,452.57 306.96,452.704 307.352,452.704C307.752,452.704 308.066,452.57 308.294,452.302C308.522,452.034 308.636,451.58 308.636,450.94L308.636,446.404L311.42,446.404L311.42,451.024C311.42,452.28 311.06,453.256 310.34,453.952C309.62,454.648 308.616,454.996 307.328,454.996ZM315.067,453.34L314.504,454.804L311.624,454.804L315.296,446.404L318.08,446.404L321.752,454.804L318.824,454.804L318.261,453.34L315.067,453.34ZM317.477,451.3L316.664,449.184L315.851,451.3L317.477,451.3Z"
                      style="fill:rgb(179,10,0);"/>
            </g>
        </g>
        <g transform="matrix(1,0,0,1,-224.900739,66.038331)">
            <g transform="matrix(-8.463758,14.659659,-14.659659,-8.463758,989.951899,220.296906)">
                <path d="M-0.768,21.121C-1.706,20.557 -2.288,19.55 -2.307,18.455L-2.539,5.202C-2.559,4.048 -1.951,2.974 -0.952,2.397L9.986,-3.918C10.986,-4.495 12.22,-4.485 13.209,-3.89L24.571,2.938C25.509,3.501 26.091,4.509 26.11,5.604L26.342,18.857C26.362,20.011 25.755,21.085 24.755,21.662L13.817,27.977C12.817,28.554 11.583,28.543 10.594,27.949L-0.768,21.121ZM3.935,21.354L11.739,26.044C12.036,26.222 12.406,26.225 12.706,26.052L23.644,19.737C23.943,19.564 24.126,19.242 24.12,18.896L23.888,5.642C23.882,5.314 23.707,5.012 23.426,4.843L22,3.986L22,8C22,8.171 21.957,8.331 21.882,8.472C21.837,8.556 21.778,8.636 21.707,8.707C21.636,8.778 21.556,8.837 21.472,8.882C21.331,8.957 21.171,9 21,9L16,9C15.448,9 15,8.552 15,8C15,7.448 15.448,7 16,7L18.586,7L18.038,6.452C16.7,5.162 14.992,4.338 13.171,4.084L13.017,3.818C12.875,3.572 12.652,3.403 12.401,3.324C12.459,3.068 12.423,2.79 12.282,2.544L12.024,2.097C12.005,2.064 11.985,2.032 11.966,2L12.004,2C14.777,2.01 17.441,3.094 19.435,5.021L19.447,5.033L20,5.586L20,3C20,2.93 20.007,2.862 20.021,2.796L12.064,-1.985C11.767,-2.163 11.397,-2.167 11.097,-1.993L0.16,4.322C-0.14,4.495 -0.323,4.817 -0.317,5.163L-0.084,18.416C-0.079,18.745 0.096,19.047 0.377,19.216L2,20.191L2,16C2,15.829 2.043,15.669 2.118,15.528C2.163,15.444 2.222,15.364 2.293,15.293C2.364,15.222 2.444,15.163 2.528,15.118C2.669,15.043 2.829,15 3,15L8,15C8.552,15 9,15.448 9,16C9,16.552 8.552,17 8,17L5.414,17L5.962,17.548C7.498,19.029 9.521,19.896 11.644,19.991C11.302,20.462 11.247,21.11 11.557,21.647L11.759,21.996C9.071,21.927 6.502,20.851 4.565,18.979L4.553,18.967L4,18.414L4,21C4,21.125 3.977,21.244 3.935,21.354ZM4.767,8.6C4.276,9.634 4,10.787 4,12C4,12.552 3.552,13 3,13C2.448,13 2,12.552 2,12C2,10.008 2.595,8.145 3.615,6.579C3.66,6.673 3.71,6.768 3.766,6.865L4.024,7.312C4.166,7.557 4.389,7.727 4.64,7.805C4.582,8.062 4.617,8.34 4.759,8.585L4.767,8.6ZM19.311,15.229C19.754,14.24 20,13.146 20,12C20,11.448 20.448,11 21,11C21.552,11 22,11.448 22,12C22,13.918 21.448,15.716 20.497,17.245C20.565,17.057 20.596,16.852 20.584,16.639C20.54,15.916 19.997,15.341 19.311,15.229Z"
                      style="fill:url(#_Linear1);"/>
            </g>
            <g transform="matrix(2.684216,0,0,2.684216,680.662272,260.745546)">
                <path d="M22.116,7.676C22.685,9.004 23,10.465 23,12C23,18.071 18.071,23 12,23C5.929,23 1,18.071 1,12C1,5.929 5.929,1 12,1C16.479,1 20.336,3.682 22.051,7.527C22.075,7.575 22.097,7.625 22.116,7.676Z"
                      style="fill:rgb(179,10,0);"/>
            </g>
            <g transform="matrix(0.870195,0,0,0.870195,65.324255,32.591604)">
                <path d="M603.456,263.166L534.868,263.166C530.213,263.166 526.433,259.386 526.433,254.731C526.433,250.075 530.213,246.296 534.868,246.296L636.086,246.296C640.741,246.296 644.521,250.075 644.521,254.731C644.521,259.386 640.741,263.166 636.086,263.166L623.73,263.166L609.365,284.714C609.057,285.176 608.704,285.607 608.311,286L593.188,301.122L616.746,324.68C620.037,327.972 620.037,333.317 616.746,336.608C613.454,339.9 608.109,339.9 604.817,336.608L581.259,313.051L557.702,336.608C554.41,339.9 549.065,339.9 545.773,336.608C542.481,333.317 542.481,327.972 545.773,324.68L569.331,301.122L554.208,286C550.916,282.708 550.916,277.363 554.208,274.071C557.5,270.779 562.845,270.779 566.137,274.071L581.259,289.194L595.792,274.661L603.456,263.166ZM577.042,237.861C572.387,237.861 568.607,234.082 568.607,229.426C568.607,224.771 572.387,220.991 577.042,220.991L585.477,220.991C590.132,220.991 593.912,224.771 593.912,229.426C593.912,234.082 590.132,237.861 585.477,237.861L577.042,237.861Z"
                      style="fill:rgb(83,86,90);"/>
            </g>
            <g transform="matrix(0.870195,0,0,0.870195,44.484902,11.752251)">
                <path d="M641.299,372.818L626.76,401.895C624.679,406.059 619.608,407.749 615.444,405.667C611.28,403.585 609.59,398.514 611.672,394.351L653.846,310.002C655.275,307.145 658.195,305.34 661.39,305.34C664.585,305.34 667.506,307.145 668.935,310.002L711.109,394.351C713.191,398.514 711.5,403.585 707.337,405.667C703.173,407.749 698.102,406.059 696.02,401.895L681.482,372.818L641.299,372.818ZM673.047,355.949L661.39,332.635L649.734,355.949L673.047,355.949Z"
                      style="fill:rgb(83,86,90);"/>
            </g>
            <g transform="matrix(11.094797,0,0,11.094797,-2248.99942,-4711.373882)">
                <path d="M275.031,451.515C275.104,451.536 275.172,451.56 275.235,451.585C275.473,451.683 275.649,451.842 275.76,452.063C275.872,452.283 275.928,452.591 275.928,452.986L275.928,454.532C275.928,454.806 276.001,455.017 276.146,455.166C276.291,455.315 276.507,455.39 276.792,455.39L276.792,455.39C276.885,455.39 276.96,455.465 276.96,455.558L276.96,456.883C276.96,457.02 276.848,457.132 276.71,457.132L276.172,457.132C275.336,457.132 274.707,456.928 274.283,456.52C273.86,456.111 273.648,455.534 273.648,454.788L273.648,452.937C273.648,452.746 273.6,452.607 273.504,452.52C273.408,452.434 273.282,452.391 273.125,452.391L272.974,452.391C272.837,452.391 272.725,452.279 272.725,452.141L272.725,450.891C272.725,450.753 272.837,450.641 272.974,450.641L273.125,450.641C273.282,450.641 273.408,450.596 273.504,450.506C273.6,450.415 273.648,450.278 273.648,450.095L273.648,448.244C273.648,447.495 273.86,446.918 274.283,446.511C274.707,446.104 275.336,445.9 276.172,445.9L276.71,445.9C276.848,445.9 276.96,446.012 276.96,446.149L276.96,447.474C276.96,447.567 276.885,447.642 276.792,447.642L276.792,447.642C276.507,447.642 276.291,447.717 276.146,447.866C276.001,448.015 275.928,448.226 275.928,448.5L275.928,450.046C275.928,450.441 275.872,450.749 275.76,450.969C275.649,451.19 275.473,451.348 275.235,451.445C275.172,451.47 275.104,451.494 275.031,451.515ZM281.138,451.515C281.066,451.494 280.999,451.47 280.937,451.445C280.701,451.348 280.525,451.19 280.411,450.969C280.296,450.749 280.239,450.441 280.239,450.046L280.239,448.5C280.239,448.226 280.166,448.015 280.021,447.866C279.876,447.717 279.659,447.642 279.372,447.642L279.372,447.642C279.279,447.642 279.203,447.567 279.203,447.474L279.203,446.149C279.203,446.012 279.315,445.9 279.453,445.9L279.991,445.9C280.83,445.9 281.461,446.104 281.884,446.511C282.307,446.918 282.519,447.495 282.519,448.244L282.519,450.095C282.519,450.278 282.567,450.415 282.663,450.506C282.759,450.596 282.884,450.641 283.039,450.641L283.189,450.641C283.327,450.641 283.438,450.753 283.438,450.891L283.438,452.141C283.438,452.279 283.327,452.391 283.189,452.391L283.039,452.391C282.884,452.391 282.759,452.434 282.663,452.52C282.567,452.607 282.519,452.746 282.519,452.937L282.519,454.788C282.519,455.534 282.307,456.111 281.884,456.52C281.461,456.928 280.83,457.132 279.991,457.132L279.453,457.132C279.315,457.132 279.203,457.02 279.203,456.883L279.203,455.558C279.203,455.465 279.279,455.39 279.372,455.39L279.372,455.39C279.659,455.39 279.876,455.315 280.021,455.166C280.166,455.017 280.239,454.806 280.239,454.532L280.239,452.986C280.239,452.591 280.296,452.283 280.411,452.063C280.525,451.842 280.701,451.683 280.937,451.585C280.999,451.56 281.066,451.536 281.138,451.515Z"
                      style="fill:rgb(83,86,90);"/>
            </g>
        </g>
    </g>
    <defs>
        <linearGradient id="_Linear1" x1="0" y1="0" x2="1" y2="0" gradientUnits="userSpaceOnUse"
                        gradientTransform="matrix(26.272433,2.115904,-2.115904,26.272433,-1.195406,11.644514)"><stop offset="0" style="stop-color:rgb(255,45,32);stop-opacity:1"/>
            <stop offset="1" style="stop-color:rgb(179,10,0);stop-opacity:1"/></linearGradient>
    </defs>
</svg>
