<?xml version="1.0" encoding="UTF-8" standalone="no"?><!DOCTYPE svg PUBLIC "-//W3C//DTD SVG 1.1//EN" "http://www.w3.org/Graphics/SVG/1.1/DTD/svg11.dtd"><svg width="100%" height="100%" viewBox="0 0 2084 2854" version="1.1" xmlns="http://www.w3.org/2000/svg" xmlns:xlink="http://www.w3.org/1999/xlink" xml:space="preserve" xmlns:serif="http://www.serif.com/" style="fill-rule:evenodd;clip-rule:evenodd;stroke-linejoin:round;stroke-miterlimit:2;"><path id="Laravel-Translation-Manager" serif:id="Laravel Translation Manager" d="M0,2823.683l0,-104.863l10.976,0l0,95.226l58.735,0l0,9.637l-69.711,0Zm135.239,-12.332c-2.03,3.396 -4.847,6.212 -8.451,8.448c-4.932,3.059 -11.16,4.589 -18.685,4.589c-5.905,0 -11.018,-0.955 -15.339,-2.866c-4.321,-1.911 -7.64,-4.599 -9.957,-8.065c-2.317,-3.466 -3.476,-7.431 -3.476,-11.895c0,-4.092 0.973,-7.823 2.919,-11.196c1.946,-3.372 5.143,-6.089 9.59,-8.149c4.447,-2.061 10.428,-3.091 17.941,-3.091l25.034,0l0,-4.719c0,-6.73 -1.885,-11.888 -5.655,-15.474c-3.77,-3.586 -9.339,-5.379 -16.706,-5.379c-5.114,0 -9.954,0.843 -14.522,2.529c-4.567,1.686 -8.464,3.93 -11.689,6.731l-4.731,-7.869c3.979,-3.383 8.771,-6.01 14.375,-7.881c5.604,-1.871 11.472,-2.806 17.603,-2.806c10.234,0 18.119,2.538 23.655,7.613c5.537,5.075 8.305,12.736 8.305,22.982l0,48.832l-10.212,0l-0,-12.332Zm-0.424,-24.286l-24.673,0c-7.657,0 -12.948,1.347 -15.872,4.042c-2.924,2.695 -4.386,6.045 -4.386,10.051c0,4.547 1.751,8.162 5.253,10.843c3.502,2.682 8.363,4.022 14.583,4.022c6.075,0 11.265,-1.369 15.571,-4.108c4.306,-2.739 7.481,-6.688 9.525,-11.849l0,-13.003Zm49.734,-26.871c2.258,-4.731 5.602,-8.453 10.032,-11.169c5.187,-3.179 11.64,-4.769 19.36,-4.769l0,10.381c-0.44,-0.056 -0.862,-0.098 -1.266,-0.126c-0.404,-0.028 -0.819,-0.042 -1.245,-0.042c-8.213,0 -14.675,2.518 -19.388,7.555c-4.713,5.036 -7.069,12.189 -7.069,21.458l0,40.201l-10.634,0l0,-78.722l10.21,0l-0,15.233Zm93.004,51.157c-2.03,3.396 -4.847,6.212 -8.451,8.448c-4.932,3.059 -11.16,4.589 -18.685,4.589c-5.905,0 -11.018,-0.955 -15.339,-2.866c-4.321,-1.911 -7.64,-4.599 -9.957,-8.065c-2.317,-3.466 -3.476,-7.431 -3.476,-11.895c0,-4.092 0.973,-7.823 2.919,-11.196c1.946,-3.372 5.143,-6.089 9.59,-8.149c4.447,-2.061 10.428,-3.091 17.941,-3.091l25.034,0l0,-4.719c0,-6.73 -1.885,-11.888 -5.655,-15.474c-3.77,-3.586 -9.339,-5.379 -16.706,-5.379c-5.114,0 -9.954,0.843 -14.522,2.529c-4.567,1.686 -8.464,3.93 -11.689,6.731l-4.731,-7.869c3.979,-3.383 8.771,-6.01 14.375,-7.881c5.604,-1.871 11.472,-2.806 17.603,-2.806c10.234,0 18.119,2.538 23.655,7.613c5.537,5.075 8.305,12.736 8.305,22.982l0,48.832l-10.212,0l0,-12.332Zm-0.424,-24.286l-24.673,0c-7.657,0 -12.948,1.347 -15.872,4.042c-2.924,2.695 -4.386,6.045 -4.386,10.051c0,4.547 1.751,8.162 5.253,10.843c3.502,2.682 8.363,4.022 14.583,4.022c6.075,0 11.265,-1.369 15.571,-4.108c4.306,-2.739 7.481,-6.688 9.525,-11.849l0,-13.003Zm63.874,24.9l29.783,-67.005l10.575,0l-35.059,78.722l-10.891,0l-34.972,-78.722l11.17,0l29.394,67.005Zm55.646,-24.451c0.348,4.803 1.638,9.129 3.868,12.976c2.643,4.559 6.322,8.118 11.035,10.676c4.713,2.558 10.12,3.838 16.22,3.838c4.853,0 9.347,-0.857 13.481,-2.571c4.134,-1.714 7.665,-4.314 10.59,-7.8l6.004,6.938c-3.509,4.195 -7.874,7.379 -13.094,9.555c-5.22,2.175 -10.965,3.263 -17.237,3.263c-8.169,0 -15.362,-1.715 -21.579,-5.146c-6.217,-3.431 -11.069,-8.174 -14.557,-14.229c-3.488,-6.055 -5.231,-12.963 -5.231,-20.723c0,-7.802 1.661,-14.71 4.983,-20.722c3.322,-6.012 7.903,-10.734 13.742,-14.165c5.839,-3.431 12.438,-5.146 19.795,-5.146c7.356,0 13.911,1.679 19.665,5.038c5.754,3.359 10.275,8.048 13.563,14.066c3.288,6.019 4.932,13 4.932,20.945c0,0.438 -0.014,0.948 -0.043,1.53c-0.029,0.581 -0.071,1.141 -0.128,1.679l-66.012,0Zm0.051,-7.94l55.963,-0c-0.341,-4.386 -1.5,-8.37 -3.475,-11.953c-2.443,-4.431 -5.768,-7.912 -9.976,-10.442c-4.208,-2.53 -9.055,-3.795 -14.542,-3.795c-5.443,0 -10.293,1.265 -14.551,3.795c-4.258,2.53 -7.583,6.025 -9.977,10.484c-1.908,3.553 -3.055,7.523 -3.442,11.911Zm87.883,44.108l0,-111.155l10.634,0l0,111.155l-10.634,0Zm102.316,0l0,-95.226l-36.913,0l0,-9.637l84.799,0l0,9.637l-36.91,0l0,95.226l-10.976,0Zm71.45,-63.489c2.258,-4.731 5.602,-8.453 10.032,-11.169c5.187,-3.179 11.64,-4.769 19.36,-4.769l0,10.381c-0.44,-0.056 -0.862,-0.098 -1.266,-0.126c-0.404,-0.028 -0.819,-0.042 -1.245,-0.042c-8.213,0 -14.675,2.518 -19.388,7.555c-4.713,5.036 -7.069,12.189 -7.069,21.458l0,40.201l-10.634,0l0,-78.722l10.21,0l0,15.233Zm93.004,51.157c-2.03,3.396 -4.847,6.212 -8.451,8.448c-4.932,3.059 -11.16,4.589 -18.685,4.589c-5.905,0 -11.018,-0.955 -15.339,-2.866c-4.321,-1.911 -7.64,-4.599 -9.957,-8.065c-2.317,-3.466 -3.476,-7.431 -3.476,-11.895c0,-4.092 0.973,-7.823 2.919,-11.196c1.946,-3.372 5.143,-6.089 9.59,-8.149c4.447,-2.061 10.428,-3.091 17.941,-3.091l25.034,0l0,-4.719c0,-6.73 -1.885,-11.888 -5.655,-15.474c-3.77,-3.586 -9.339,-5.379 -16.706,-5.379c-5.114,0 -9.954,0.843 -14.522,2.529c-4.567,1.686 -8.464,3.93 -11.689,6.731l-4.731,-7.869c3.979,-3.383 8.771,-6.01 14.375,-7.881c5.604,-1.871 11.472,-2.806 17.603,-2.806c10.234,0 18.119,2.538 23.655,7.613c5.537,5.075 8.305,12.736 8.305,22.982l0,48.832l-10.212,0l0,-12.332Zm-0.424,-24.286l-24.673,0c-7.657,0 -12.948,1.347 -15.872,4.042c-2.924,2.695 -4.386,6.045 -4.386,10.051c0,4.547 1.751,8.162 5.253,10.843c3.502,2.682 8.363,4.022 14.583,4.022c6.075,0 11.265,-1.369 15.571,-4.108c4.306,-2.739 7.481,-6.688 9.525,-11.849l0,-13.003Zm49.734,-27.693c2.49,-4.238 5.925,-7.657 10.305,-10.259c5.451,-3.238 11.975,-4.857 19.572,-4.857c6.448,0 12.082,1.237 16.902,3.712c4.82,2.475 8.603,6.208 11.348,11.2c2.745,4.992 4.117,11.267 4.117,18.824l0,45.69l-10.636,0l0,-44.588c0,-8.342 -2.065,-14.642 -6.195,-18.9c-4.13,-4.258 -9.937,-6.387 -17.423,-6.387c-5.604,0 -10.484,1.133 -14.642,3.399c-4.158,2.266 -7.351,5.517 -9.58,9.753c-2.229,4.236 -3.344,9.366 -3.344,15.391l0,41.332l-10.634,0l0,-78.722l10.21,0l0,14.411Zm112.269,65.015c-6.518,0 -12.679,-0.928 -18.483,-2.784c-5.804,-1.856 -10.324,-4.162 -13.561,-6.918l4.684,-8.424c3.193,2.47 7.286,4.573 12.279,6.309c4.993,1.736 10.247,2.604 15.76,2.604c7.49,0 12.893,-1.173 16.209,-3.52c3.316,-2.347 4.974,-5.473 4.974,-9.379c0,-2.902 -0.921,-5.173 -2.762,-6.81c-1.841,-1.638 -4.278,-2.889 -7.311,-3.754c-3.033,-0.865 -6.376,-1.591 -10.029,-2.177c-3.653,-0.586 -7.306,-1.293 -10.96,-2.121c-3.654,-0.828 -6.997,-2.008 -10.03,-3.54c-3.033,-1.532 -5.469,-3.643 -7.31,-6.332c-1.841,-2.689 -2.761,-6.265 -2.761,-10.73c0,-4.344 1.218,-8.212 3.653,-11.604c2.435,-3.392 5.972,-6.065 10.61,-8.019c4.638,-1.954 10.295,-2.932 16.969,-2.932c5.078,0 10.176,0.667 15.294,2.002c5.118,1.335 9.295,3.145 12.53,5.429l-4.684,8.422c-3.435,-2.383 -7.15,-4.085 -11.146,-5.107c-3.996,-1.022 -8.022,-1.533 -12.078,-1.533c-7.017,0 -12.194,1.223 -15.529,3.67c-3.335,2.447 -5.003,5.53 -5.003,9.248c0,3.06 0.92,5.445 2.761,7.154c1.841,1.709 4.277,3.036 7.31,3.979c3.033,0.943 6.376,1.708 10.03,2.294c3.654,0.586 7.297,1.292 10.929,2.119c3.632,0.827 6.964,1.982 9.997,3.465c3.033,1.483 5.469,3.533 7.31,6.15c1.841,2.617 2.761,6.108 2.761,10.472c0,4.518 -1.275,8.455 -3.825,11.811c-2.55,3.357 -6.23,5.955 -11.04,7.795c-4.81,1.84 -10.659,2.76 -17.547,2.76Zm52.043,-0.705l0,-111.155l10.634,0l0,111.155l-10.634,0Zm89.602,-12.332c-2.03,3.396 -4.847,6.212 -8.451,8.448c-4.932,3.059 -11.16,4.589 -18.685,4.589c-5.905,0 -11.018,-0.955 -15.339,-2.866c-4.321,-1.911 -7.64,-4.599 -9.957,-8.065c-2.317,-3.466 -3.476,-7.431 -3.476,-11.895c0,-4.092 0.973,-7.823 2.919,-11.196c1.946,-3.372 5.143,-6.089 9.59,-8.149c4.447,-2.061 10.428,-3.091 17.941,-3.091l25.034,0l0,-4.719c0,-6.73 -1.885,-11.888 -5.655,-15.474c-3.77,-3.586 -9.339,-5.379 -16.706,-5.379c-5.114,0 -9.954,0.843 -14.522,2.529c-4.567,1.686 -8.464,3.93 -11.689,6.731l-4.731,-7.869c3.979,-3.383 8.771,-6.01 14.375,-7.881c5.604,-1.871 11.472,-2.806 17.603,-2.806c10.234,0 18.119,2.538 23.655,7.613c5.537,5.075 8.305,12.736 8.305,22.982l0,48.832l-10.212,0l0,-12.332Zm-0.424,-24.286l-24.673,0c-7.657,0 -12.948,1.347 -15.872,4.042c-2.924,2.695 -4.386,6.045 -4.386,10.051c0,4.547 1.751,8.162 5.253,10.843c3.502,2.682 8.363,4.022 14.583,4.022c6.075,0 11.265,-1.369 15.571,-4.108c4.306,-2.739 7.481,-6.688 9.525,-11.849l0,-13.003Zm41.314,-33.231l-14.047,0l0,-8.874l14.047,0l0,-17.267l10.636,0l0,17.267l23.924,0l0,8.874l-23.924,0l0,47.043c0,4.644 1.164,8.216 3.493,10.716c2.329,2.5 5.694,3.75 10.094,3.75c4.685,0 8.583,-1.343 11.694,-4.028l3.71,7.614c-2.024,1.841 -4.522,3.211 -7.495,4.11c-2.973,0.899 -5.998,1.348 -9.077,1.348c-7.393,0 -13.084,-2.002 -17.073,-6.007c-3.989,-4.005 -5.983,-9.646 -5.983,-16.922l0,-47.624Zm58.944,69.849l0,-78.647l10.636,0l0,78.647l-10.636,0Zm5.393,-96.025c-2.197,0 -4.045,-0.749 -5.543,-2.247c-1.498,-1.498 -2.247,-3.296 -2.247,-5.393c0,-2.097 0.749,-3.87 2.247,-5.318c1.498,-1.448 3.346,-2.172 5.543,-2.172c2.197,0 4.045,0.699 5.543,2.097c1.498,1.398 2.247,3.146 2.247,5.243c0,2.197 -0.724,4.045 -2.172,5.543c-1.448,1.498 -3.321,2.247 -5.618,2.247Zm67.077,96.729c-7.676,0 -14.525,-1.715 -20.548,-5.146c-6.023,-3.431 -10.781,-8.179 -14.275,-14.245c-3.494,-6.066 -5.241,-12.973 -5.241,-20.721c0,-7.851 1.752,-14.769 5.257,-20.755c3.505,-5.986 8.257,-10.693 14.257,-14.121c6,-3.428 12.85,-5.143 20.549,-5.143c7.699,0 14.576,1.712 20.629,5.137c6.053,3.424 10.805,8.127 14.257,14.106c3.452,5.98 5.178,12.905 5.178,20.776c0,7.77 -1.722,14.682 -5.166,20.737c-3.444,6.055 -8.203,10.798 -14.277,14.229c-6.074,3.431 -12.948,5.146 -20.62,5.146Zm0,-9.384c5.629,0 10.654,-1.279 15.078,-3.838c4.423,-2.558 7.906,-6.16 10.45,-10.803c2.544,-4.644 3.815,-10.005 3.815,-16.083c0,-6.165 -1.272,-11.545 -3.815,-16.139c-2.544,-4.594 -6.027,-8.159 -10.45,-10.696c-4.423,-2.537 -9.435,-3.805 -15.035,-3.805c-5.601,0 -10.601,1.268 -15.003,3.805c-4.401,2.537 -7.899,6.102 -10.492,10.696c-2.593,4.594 -3.89,9.974 -3.89,16.139c0,6.078 1.297,11.439 3.89,16.083c2.593,4.644 6.089,8.245 10.486,10.803c4.397,2.558 9.386,3.838 14.966,3.838Zm72.025,-55.632c2.49,-4.238 5.925,-7.657 10.305,-10.259c5.451,-3.238 11.975,-4.857 19.572,-4.857c6.448,0 12.082,1.237 16.902,3.712c4.82,2.475 8.603,6.208 11.348,11.2c2.745,4.992 4.117,11.267 4.117,18.824l0,45.69l-10.636,0l0,-44.588c0,-8.342 -2.065,-14.642 -6.195,-18.9c-4.13,-4.258 -9.937,-6.387 -17.423,-6.387c-5.604,0 -10.484,1.133 -14.642,3.399c-4.158,2.266 -7.351,5.517 -9.58,9.753c-2.229,4.236 -3.344,9.366 -3.344,15.391l0,41.332l-10.634,0l0,-78.722l10.21,0l0,14.411Zm143.358,-18.88l0,83.191l-10.636,0l0,-104.863l9.084,0l45.508,77.698l45.124,-77.698l9.082,0l0.084,104.863l-10.634,0l-0.082,-83.705l-41.17,70.319l-5.194,0l-41.166,-69.804Zm179.486,70.859c-2.03,3.396 -4.847,6.212 -8.451,8.448c-4.932,3.059 -11.16,4.589 -18.685,4.589c-5.905,0 -11.018,-0.955 -15.339,-2.866c-4.321,-1.911 -7.64,-4.599 -9.957,-8.065c-2.317,-3.466 -3.476,-7.431 -3.476,-11.895c0,-4.092 0.973,-7.823 2.919,-11.196c1.946,-3.372 5.143,-6.089 9.59,-8.149c4.447,-2.061 10.428,-3.091 17.941,-3.091l25.034,0l0,-4.719c0,-6.73 -1.885,-11.888 -5.655,-15.474c-3.77,-3.586 -9.339,-5.379 -16.706,-5.379c-5.114,0 -9.954,0.843 -14.522,2.529c-4.567,1.686 -8.464,3.93 -11.689,6.731l-4.731,-7.869c3.979,-3.383 8.771,-6.01 14.375,-7.881c5.604,-1.871 11.472,-2.806 17.603,-2.806c10.234,0 18.119,2.538 23.655,7.613c5.537,5.075 8.305,12.736 8.305,22.982l0,48.832l-10.212,0l0,-12.332Zm-0.424,-24.286l-24.673,0c-7.657,0 -12.948,1.347 -15.872,4.042c-2.924,2.695 -4.386,6.045 -4.386,10.051c0,4.547 1.751,8.162 5.253,10.843c3.502,2.682 8.363,4.022 14.583,4.022c6.075,0 11.265,-1.369 15.571,-4.108c4.306,-2.739 7.481,-6.688 9.525,-11.849l0,-13.003Zm49.734,-27.693c2.49,-4.238 5.925,-7.657 10.305,-10.259c5.451,-3.238 11.975,-4.857 19.572,-4.857c6.448,0 12.082,1.237 16.902,3.712c4.82,2.475 8.603,6.208 11.348,11.2c2.745,4.992 4.117,11.267 4.117,18.824l0,45.69l-10.636,0l0,-44.588c0,-8.342 -2.065,-14.642 -6.195,-18.9c-4.13,-4.258 -9.937,-6.387 -17.423,-6.387c-5.604,0 -10.484,1.133 -14.642,3.399c-4.158,2.266 -7.351,5.517 -9.58,9.753c-2.229,4.236 -3.344,9.366 -3.344,15.391l0,41.332l-10.634,0l0,-78.722l10.21,0l0,14.411Zm140.397,51.979c-2.03,3.396 -4.847,6.212 -8.451,8.448c-4.932,3.059 -11.16,4.589 -18.685,4.589c-5.905,0 -11.018,-0.955 -15.339,-2.866c-4.321,-1.911 -7.64,-4.599 -9.957,-8.065c-2.317,-3.466 -3.476,-7.431 -3.476,-11.895c0,-4.092 0.973,-7.823 2.919,-11.196c1.946,-3.372 5.143,-6.089 9.59,-8.149c4.447,-2.061 10.428,-3.091 17.941,-3.091l25.034,0l0,-4.719c0,-6.73 -1.885,-11.888 -5.655,-15.474c-3.77,-3.586 -9.339,-5.379 -16.706,-5.379c-5.114,0 -9.954,0.843 -14.522,2.529c-4.567,1.686 -8.464,3.93 -11.689,6.731l-4.731,-7.869c3.979,-3.383 8.771,-6.01 14.375,-7.881c5.604,-1.871 11.472,-2.806 17.603,-2.806c10.234,0 18.119,2.538 23.655,7.613c5.537,5.075 8.305,12.736 8.305,22.982l0,48.832l-10.212,0l0,-12.332Zm-0.424,-24.286l-24.673,0c-7.657,0 -12.948,1.347 -15.872,4.042c-2.924,2.695 -4.386,6.045 -4.386,10.051c0,4.547 1.751,8.162 5.253,10.843c3.502,2.682 8.363,4.022 14.583,4.022c6.075,0 11.265,-1.369 15.571,-4.108c4.306,-2.739 7.481,-6.688 9.525,-11.849l0,-13.003Zm101.877,18.43c-3.138,4.574 -7.111,8.137 -11.921,10.687c-5.586,2.963 -11.855,4.444 -18.805,4.444c-7.531,0 -14.281,-1.623 -20.249,-4.869c-5.969,-3.246 -10.683,-7.743 -14.141,-13.492c-3.459,-5.749 -5.188,-12.381 -5.188,-19.898c0,-7.56 1.729,-14.205 5.188,-19.932c3.459,-5.728 8.173,-10.189 14.141,-13.385c5.969,-3.196 12.719,-4.794 20.249,-4.794c6.95,0 13.219,1.457 18.805,4.37c5.029,2.623 9.144,6.362 12.345,11.219l0,-14.885l10.21,0l0,69.2c0,13.503 -3.325,23.426 -9.974,29.771c-6.649,6.345 -16.475,9.517 -29.479,9.517c-7.161,0 -14.042,-1.049 -20.644,-3.148c-6.602,-2.099 -11.976,-5.089 -16.124,-8.972l5.409,-8.125c3.769,3.386 8.371,6.043 13.807,7.97c5.436,1.927 11.173,2.891 17.212,2.891c9.996,0 17.355,-2.335 22.076,-7.006c4.721,-4.67 7.082,-11.899 7.082,-21.687l0,-9.879Zm-29.708,5.75c5.83,0 10.984,-1.218 15.464,-3.655c4.479,-2.437 8.001,-5.835 10.566,-10.194c2.565,-4.359 3.847,-9.369 3.847,-15.028c0,-5.703 -1.282,-10.713 -3.847,-15.028c-2.565,-4.315 -6.087,-7.677 -10.566,-10.086c-4.479,-2.409 -9.634,-3.613 -15.464,-3.613c-5.728,0 -10.857,1.204 -15.387,3.613c-4.529,2.409 -8.077,5.771 -10.642,10.086c-2.565,4.315 -3.848,9.325 -3.848,15.028c0,5.66 1.283,10.669 3.848,15.028c2.565,4.359 6.113,7.757 10.642,10.194c4.529,2.437 9.658,3.655 15.387,3.655Zm72.593,-23.73c0.348,4.803 1.638,9.129 3.868,12.976c2.643,4.559 6.322,8.118 11.035,10.676c4.713,2.558 10.12,3.838 16.22,3.838c4.853,0 9.347,-0.857 13.481,-2.571c4.134,-1.714 7.665,-4.314 10.59,-7.8l6.004,6.938c-3.509,4.195 -7.874,7.379 -13.094,9.555c-5.22,2.175 -10.965,3.263 -17.237,3.263c-8.169,0 -15.362,-1.715 -21.579,-5.146c-6.217,-3.431 -11.069,-8.174 -14.557,-14.229c-3.488,-6.055 -5.231,-12.963 -5.231,-20.723c0,-7.802 1.661,-14.71 4.983,-20.722c3.322,-6.012 7.903,-10.734 13.742,-14.165c5.839,-3.431 12.438,-5.146 19.795,-5.146c7.356,0 13.911,1.679 19.665,5.038c5.754,3.359 10.275,8.048 13.563,14.066c3.288,6.019 4.932,13 4.932,20.945c0,0.438 -0.014,0.948 -0.043,1.53c-0.029,0.581 -0.071,1.141 -0.128,1.679l-66.012,0Zm0.051,-7.94l55.963,-0c-0.341,-4.386 -1.5,-8.37 -3.475,-11.953c-2.443,-4.431 -5.768,-7.912 -9.976,-10.442c-4.208,-2.53 -9.055,-3.795 -14.542,-3.795c-5.443,0 -10.293,1.265 -14.551,3.795c-4.258,2.53 -7.583,6.025 -9.977,10.484c-1.908,3.553 -3.055,7.523 -3.442,11.911Zm98.093,-19.381c2.258,-4.731 5.602,-8.453 10.032,-11.169c5.187,-3.179 11.64,-4.769 19.36,-4.769l0,10.381c-0.44,-0.056 -0.862,-0.098 -1.266,-0.126c-0.404,-0.028 -0.819,-0.042 -1.245,-0.042c-8.213,0 -14.675,2.518 -19.388,7.555c-4.713,5.036 -7.069,12.189 -7.069,21.458l0,40.201l-10.634,0l0,-78.722l10.21,0l0,15.233Z" style="fill:#53565a;"/><path id="LINGUA" d="M0,2669.486l0,-357.698l120.595,0l0,264.185l161.475,0l0,93.512l-282.07,0Zm315.285,0l0,-357.698l120.595,0l0,357.698l-120.595,0Zm296.378,-162.652l0,162.652l-117.529,0l0,-357.698l99.133,0l135.925,162.652l0,-162.652l117.529,0l0,357.698l-99.133,0l-135.925,-162.652Zm634.658,125.349c-21.803,14.649 -46.671,25.89 -74.606,33.726c-27.934,7.835 -55.017,11.753 -81.248,11.753c-28.956,0 -55.613,-4.514 -79.971,-13.541c-24.358,-9.028 -45.479,-21.888 -63.364,-38.58c-17.885,-16.693 -31.767,-36.451 -41.646,-59.276c-9.879,-22.825 -14.819,-48.034 -14.819,-75.628c0,-27.594 4.94,-52.803 14.819,-75.628c9.879,-22.825 23.847,-42.583 41.902,-59.276c18.055,-16.693 39.432,-29.553 64.13,-38.58c24.698,-9.028 51.866,-13.541 81.504,-13.541c35.429,0 67.026,5.962 94.79,17.885c27.764,11.923 50.674,28.956 68.729,51.1l-77.16,67.963c-11.242,-12.945 -23.421,-22.739 -36.536,-29.382c-13.116,-6.643 -27.679,-9.964 -43.69,-9.964c-13.286,0 -25.294,2.044 -36.025,6.132c-10.731,4.088 -19.844,10.05 -27.338,17.885c-7.495,7.835 -13.286,17.204 -17.374,28.105c-4.088,10.901 -6.132,23.336 -6.132,37.303c0,13.286 2.044,25.465 6.132,36.536c4.088,11.072 9.879,20.525 17.374,28.36c7.495,7.835 16.437,13.882 26.827,18.14c10.39,4.258 22.058,6.387 35.003,6.387c13.627,0 26.912,-2.299 39.858,-6.898c1.353,-0.481 2.716,-0.998 4.088,-1.551l0,-90.684l104.754,0l0,151.255Zm222.795,45.479c-54.847,0 -97.6,-14.819 -128.26,-44.457c-30.66,-29.638 -45.99,-71.199 -45.99,-124.683l0,-196.734l120.595,0l0,193.157c0,27.253 4.94,46.586 14.819,57.998c9.879,11.412 23.165,17.118 39.858,17.118c17.033,0 30.404,-5.706 40.113,-17.118c9.709,-11.412 14.563,-30.745 14.563,-57.998l0,-193.157l118.551,0l0,196.734c0,53.484 -15.33,95.045 -45.99,124.683c-30.66,29.638 -73.413,44.457 -128.26,44.457Zm329.537,-70.518l-23.961,62.342l-122.639,0l156.365,-357.698l118.551,0l156.365,357.698l-124.683,0l-23.961,-62.342l-136.036,0Zm102.648,-86.869l-34.63,-90.098l-34.63,90.098l69.259,0Z" style="fill:#b30a00;"/><g><path d="M933.103,28.073c67.536,-37.431 149.591,-37.431 217.128,-0l817.712,453.204c71.208,39.466 115.39,114.467 115.39,195.881l0,890.799c-0,81.414 -44.182,156.415 -115.39,195.881l-817.712,453.204c-67.536,37.431 -149.591,37.431 -217.128,0l-817.712,-453.204c-71.208,-39.466 -115.39,-114.467 -115.39,-195.881l0,-890.799c0,-81.414 44.182,-156.415 115.39,-195.881l817.712,-453.204Zm-180.082,279.043l-561.636,311.278c-21.362,11.84 -34.617,34.34 -34.617,58.764l0,890.799c0,24.424 13.255,46.924 34.617,58.764l817.712,453.204c20.261,11.229 44.877,11.229 65.138,-0l102.62,-56.875l-245.193,-141.562c-10.418,-6.015 -18.721,-14.286 -24.648,-23.839c-3.574,-5.75 -6.373,-12.114 -8.215,-18.988c-1.842,-6.874 -2.6,-13.785 -2.38,-20.552c0.356,-11.237 3.411,-22.551 9.426,-32.969l176.328,-305.41c19.464,-33.712 62.636,-45.28 96.348,-25.816c33.712,19.464 45.28,62.636 25.816,96.348l-91.188,157.943l52.784,-14.144c126.004,-36.211 236.561,-111.451 316.324,-213.782l21.664,-0c20,0 38.211,-7.66 51.859,-20.206c13.648,12.546 31.859,20.206 51.859,20.206l36.405,0c2.686,0 5.341,-0.035 7.966,-0.104l-1.334,2.317c-98.434,169.021 -258.552,293.566 -446.599,347.378l-1.15,0.319l-53.27,14.274l157.945,91.189c4.26,2.46 8.166,5.298 11.701,8.447l572.643,-317.378c21.362,-11.84 34.617,-34.34 34.617,-58.765l-0,-890.798c-0,-24.424 -13.255,-46.924 -34.617,-58.764l-817.712,-453.204c-20.261,-11.229 -44.877,-11.229 -65.138,0l-116.786,64.727l256.009,147.807c10.418,6.015 18.72,14.285 24.647,23.839c3.574,5.75 6.373,12.114 8.215,18.988c1.842,6.874 2.6,13.785 2.38,20.551c-0.356,11.237 -3.411,22.552 -9.426,32.969l-176.328,305.41c-19.464,33.712 -62.636,45.28 -96.348,25.816c-33.712,-19.464 -45.28,-62.636 -25.816,-96.348l91.188,-157.943l-52.784,14.144c-144.637,41.566 -268.921,134.557 -349.64,260.919c-16.696,-37.539 -54.328,-63.741 -98.033,-63.741l-28.475,-0c99.019,-161.696 255.334,-280.714 438.004,-332.988l1.15,-0.319l53.27,-14.274l-157.945,-91.189c-7.618,-4.398 -14.105,-10.007 -19.359,-16.443Zm749.728,500.627c-45.831,-66.507 -106.556,-124.025 -180.632,-166.793c-33.712,-19.464 -45.28,-62.636 -25.816,-96.348c19.464,-33.712 62.636,-45.28 96.348,-25.816c121.645,70.232 214.488,172.287 274.154,289.834c-7.326,-0.58 -14.91,-0.878 -22.757,-0.878l-36.405,0c-20,0 -38.211,7.66 -51.859,20.206c-13.648,-12.546 -31.859,-20.206 -51.859,-20.206l-1.173,-0Zm-917.859,654.559c44.86,61.922 102.953,115.531 172.976,155.958c33.712,19.464 45.28,62.636 25.816,96.348c-19.464,33.712 -62.636,45.28 -96.348,25.816c-117.128,-67.624 -207.554,-164.752 -267.371,-276.805c9.114,10.803 20.523,19.968 33.958,26.685c45.679,22.839 99.943,9.969 130.968,-28.002Z" style="fill:url(#_Linear1);"/><path d="M1154.81,1074.198c6.361,14.847 9.884,31.195 9.884,48.359c0,67.9 -55.126,123.027 -123.027,123.027c-67.9,0 -123.027,-55.126 -123.027,-123.027c0,-67.9 55.126,-123.027 123.027,-123.027c50.09,0 93.228,30 112.412,72.996c0.267,0.544 0.512,1.101 0.731,1.671Z" style="fill:#b30a00;"/><path d="M531.563,991.894l-248.686,0c-16.879,0 -30.583,-13.704 -30.583,-30.583c-0,-16.879 13.704,-30.583 30.583,-30.583l366.997,0c16.879,0 30.583,13.704 30.583,30.583c-0,16.879 -13.704,30.583 -30.583,30.583l-44.799,0l-52.087,78.131c-1.117,1.676 -2.397,3.237 -3.821,4.661l-54.832,54.832l85.415,85.415c11.935,11.935 11.935,31.316 0,43.251c-11.935,11.935 -31.316,11.935 -43.251,0l-85.415,-85.415l-85.415,85.415c-11.935,11.935 -31.316,11.935 -43.251,0c-11.935,-11.935 -11.935,-31.316 -0,-43.251l85.415,-85.415l-54.832,-54.832c-11.935,-11.935 -11.935,-31.316 0,-43.251c11.935,-11.935 31.316,-11.935 43.251,0l54.832,54.832l52.691,-52.691l27.788,-41.682Zm-95.77,-91.749c-16.879,-0 -30.583,-13.704 -30.583,-30.583c0,-16.879 13.704,-30.583 30.583,-30.583l30.583,0c16.879,-0 30.583,13.704 30.583,30.583c0,16.879 -13.704,30.583 -30.583,30.583l-30.583,0Z" style="fill:#53565a;"/><path d="M581.946,1302.644l-52.713,105.426c-7.549,15.097 -25.934,21.226 -41.032,13.677c-15.097,-7.549 -21.226,-25.934 -13.677,-41.032l152.916,-305.831c5.181,-10.361 15.77,-16.906 27.354,-16.906c11.584,0 22.174,6.545 27.354,16.906l152.916,305.831c7.549,15.097 1.42,33.483 -13.677,41.032c-15.097,7.549 -33.483,1.42 -41.032,-13.677l-52.713,-105.426l-145.696,0Zm115.113,-61.166l-42.265,-84.53l-42.265,84.53l84.53,0Z" style="fill:#53565a;"/><path d="M1414.773,1143.954c3.348,0.981 6.478,2.067 9.388,3.26c11.037,4.522 19.141,11.878 24.313,22.068c5.172,10.19 7.758,24.422 7.758,42.693l0,71.466c0,12.661 3.357,22.435 10.072,29.323c6.715,6.888 16.66,10.332 29.835,10.332l0,0c4.299,-0 7.783,3.485 7.783,7.783c0,14.245 0,44.571 0,61.218c-0,6.368 -5.163,11.531 -11.531,11.531c-10.664,-0 -24.874,-0 -24.874,-0c-38.653,0 -67.763,-9.436 -87.333,-28.309c-19.569,-18.873 -29.354,-45.552 -29.354,-80.039l0,-85.56c0,-8.853 -2.219,-15.278 -6.657,-19.277c-4.438,-3.999 -10.286,-5.998 -17.544,-5.998l-6.949,0c-6.368,0 -11.531,-5.163 -11.531,-11.531c-0,-15.375 -0,-42.433 -0,-57.809c0,-6.368 5.163,-11.531 11.531,-11.531c3.742,0 6.949,0 6.949,0c7.258,0 13.106,-2.092 17.544,-6.275c4.438,-4.184 6.657,-10.517 6.657,-19l0,-85.56c0,-34.596 9.785,-61.303 29.354,-80.121c19.569,-18.818 48.68,-28.227 87.333,-28.227c0,0 14.21,0 24.874,0c6.368,0 11.531,5.163 11.531,11.531c0,16.647 0,46.974 0,61.218c-0,4.299 -3.485,7.783 -7.783,7.783c-0,-0 -0,-0 -0,-0c-13.175,0 -23.12,3.444 -29.835,10.332c-6.715,6.888 -10.072,16.662 -10.072,29.323l0,71.466c0,18.272 -2.586,32.503 -7.758,42.693c-5.172,10.19 -13.276,17.518 -24.313,21.982c-2.911,1.177 -6.04,2.255 -9.388,3.232Zm282.279,-0c-3.316,-0.978 -6.413,-2.055 -9.291,-3.232c-10.913,-4.464 -19.017,-11.791 -24.313,-21.982c-5.296,-10.19 -7.944,-24.422 -7.944,-42.693l0,-71.466c0,-12.661 -3.357,-22.435 -10.072,-29.323c-6.715,-6.888 -16.717,-10.332 -30.008,-10.332l-0,0c-4.299,0 -7.783,-3.485 -7.783,-7.783c-0,-14.245 -0,-44.571 -0,-61.218c0,-6.368 5.163,-11.531 11.531,-11.531c10.664,0 24.874,0 24.874,0c38.768,0 67.937,9.409 87.506,28.227c19.569,18.818 29.354,45.525 29.354,80.121l0,85.56c0,8.483 2.219,14.816 6.657,19c4.438,4.184 10.228,6.275 17.37,6.275l6.94,0c6.368,0 11.531,5.163 11.531,11.531c0,15.375 0,42.433 0,57.809c-0,6.368 -5.163,11.531 -11.531,11.531c-3.738,-0 -6.94,-0 -6.94,-0c-7.142,0 -12.932,1.999 -17.37,5.998c-4.438,3.999 -6.657,10.424 -6.657,19.277l0,85.56c0,34.486 -9.785,61.166 -29.354,80.039c-19.569,18.873 -48.738,28.309 -87.506,28.309l-24.874,0c-6.368,-0 -11.531,-5.163 -11.531,-11.531c-0,-16.647 -0,-46.974 -0,-61.218c0,-4.299 3.485,-7.783 7.783,-7.783c0,0 0,0 0,0c13.291,0 23.293,-3.444 30.008,-10.332c6.715,-6.888 10.072,-16.662 10.072,-29.323l0,-71.466c0,-18.272 2.648,-32.503 7.944,-42.693c5.296,-10.19 13.4,-17.547 24.313,-22.068c2.878,-1.192 5.975,-2.279 9.291,-3.26Z" style="fill:#53565a;"/></g><defs><linearGradient id="_Linear1" x1="0" y1="0" x2="1" y2="0" gradientUnits="userSpaceOnUse" gradientTransform="matrix(-1055.758122,1530.151764,-1530.151764,-1055.758122,1527.050255,336.141577)"><stop offset="0" style="stop-color:#ff2d20;stop-opacity:1"/><stop offset="1" style="stop-color:#b30a00;stop-opacity:1"/></linearGradient></defs></svg>